<svg width="101" height="68" viewBox="0 0 101 68" fill="none" xmlns="http://www.w3.org/2000/svg">
<g id="Logo">
<path id="//" d="M87.346 32.652L83.584 45.288H82.54L86.302 32.652H87.346ZM93.2347 32.652L89.4727 45.288H88.4287L92.1907 32.652H93.2347Z" fill="black"/>
<g id="apps">
<path id="a" d="M31.124 53.048L33.266 52.274C33.536 52.184 33.572 52.022 33.572 51.752L33.59 50.924C33.608 50.258 33.392 49.358 32.276 49.358C31.772 49.358 31.16 49.61 31.124 50.168C31.106 50.456 31.088 50.672 30.944 50.78C30.674 50.996 30.188 51.122 29.918 51.122C29.756 51.122 29.666 51.032 29.666 50.87C29.666 49.934 31.7 48.656 33.014 48.656C34.31 48.656 34.94 49.412 34.886 50.762L34.778 53.894C34.742 54.722 34.904 55.46 35.606 55.46C35.786 55.46 35.948 55.406 36.056 55.352C36.146 55.298 36.236 55.226 36.29 55.226C36.362 55.226 36.416 55.334 36.416 55.46C36.416 55.55 35.786 56.252 34.904 56.252C34.472 56.252 34.04 56.09 33.734 55.694C33.662 55.586 33.554 55.442 33.446 55.442C33.32 55.442 33.104 55.604 32.744 55.802C32.348 56.018 31.952 56.252 31.448 56.252C30.926 56.252 30.494 56.108 30.188 55.838C29.846 55.532 29.63 55.082 29.63 54.578C29.63 53.876 29.972 53.462 31.124 53.048ZM31.016 54.362C31.016 54.668 31.232 55.442 32.15 55.442C32.51 55.442 33.068 55.172 33.248 54.992C33.464 54.776 33.464 54.524 33.482 54.146L33.518 53.084C33.518 52.886 33.446 52.85 33.338 52.85C33.23 52.85 32.924 52.922 32.6 53.03C31.538 53.39 31.016 53.66 31.016 54.362Z" fill="black"/>
<path id="p p s" d="M42.53 62.574V54.834C42.53 54.132 42.53 54.042 42.044 53.718L41.882 53.61C41.81 53.538 41.81 53.34 41.9 53.286C42.368 53.088 43.214 52.656 43.682 52.314C43.79 52.314 43.862 52.35 43.898 52.44C43.862 52.764 43.826 53.034 43.826 53.268C43.826 53.394 43.862 53.502 43.988 53.502C44.222 53.394 45.356 52.656 46.508 52.656C48.326 52.656 49.496 54.132 49.496 55.95C49.496 58.452 47.66 60.252 45.104 60.252C44.78 60.252 44.276 60.216 44.114 60.18C43.952 60.216 43.862 60.306 43.862 60.684V62.574C43.862 63.852 43.898 64.014 44.546 64.104L45.248 64.194C45.374 64.284 45.338 64.59 45.212 64.644C44.348 64.608 43.826 64.59 43.196 64.59C42.548 64.59 42.008 64.608 41.504 64.644C41.378 64.59 41.342 64.284 41.468 64.194L41.846 64.14C42.512 64.05 42.53 63.87 42.53 62.574ZM43.862 55.086V58.182C43.862 58.758 44.042 58.974 44.402 59.262C44.762 59.532 45.32 59.658 45.698 59.658C47.174 59.658 48.038 58.29 48.038 56.418C48.038 54.978 47.228 53.52 45.608 53.52C44.834 53.52 44.276 53.808 44.078 54.024C43.916 54.222 43.862 54.492 43.862 55.086ZM56.153 62.574V54.834C56.153 54.132 56.153 54.042 55.667 53.718L55.505 53.61C55.433 53.538 55.433 53.34 55.523 53.286C55.991 53.088 56.837 52.656 57.305 52.314C57.413 52.314 57.485 52.35 57.521 52.44C57.485 52.764 57.449 53.034 57.449 53.268C57.449 53.394 57.485 53.502 57.611 53.502C57.845 53.394 58.979 52.656 60.131 52.656C61.949 52.656 63.119 54.132 63.119 55.95C63.119 58.452 61.283 60.252 58.727 60.252C58.403 60.252 57.899 60.216 57.737 60.18C57.575 60.216 57.485 60.306 57.485 60.684V62.574C57.485 63.852 57.521 64.014 58.169 64.104L58.871 64.194C58.997 64.284 58.961 64.59 58.835 64.644C57.971 64.608 57.449 64.59 56.819 64.59C56.171 64.59 55.631 64.608 55.127 64.644C55.001 64.59 54.965 64.284 55.091 64.194L55.469 64.14C56.135 64.05 56.153 63.87 56.153 62.574ZM57.485 55.086V58.182C57.485 58.758 57.665 58.974 58.025 59.262C58.385 59.532 58.943 59.658 59.321 59.658C60.797 59.658 61.661 58.29 61.661 56.418C61.661 54.978 60.851 53.52 59.231 53.52C58.457 53.52 57.899 53.808 57.701 54.024C57.539 54.222 57.485 54.492 57.485 55.086ZM71.5941 52.656C72.3501 52.656 73.0161 52.836 73.1781 52.98C73.3401 53.376 73.4661 53.952 73.4661 54.438C73.3941 54.564 73.1241 54.6 73.0341 54.492C72.7281 53.7 72.1881 53.178 71.4501 53.178C70.7481 53.178 70.2981 53.628 70.2981 54.276C70.2981 55.014 71.0541 55.41 71.6841 55.77C72.6381 56.31 73.5201 56.922 73.5201 58.2C73.5201 59.568 72.2601 60.252 70.9281 60.252C70.0821 60.252 69.4521 60.072 69.0021 59.712C68.8581 59.37 68.7501 58.488 68.7861 57.894C68.8761 57.786 69.1101 57.768 69.2001 57.876C69.5061 58.866 70.0821 59.73 71.1081 59.73C71.7561 59.73 72.3141 59.352 72.3141 58.578C72.3141 57.75 71.5941 57.3 70.9281 56.922C69.8841 56.328 69.1461 55.698 69.1461 54.708C69.1461 53.394 70.2261 52.656 71.5941 52.656Z" fill="black"/>
</g>
<g id="nice">
<path id="n c e" d="M4.764 35.984V32.834C4.764 32.132 4.764 32.042 4.278 31.718L4.116 31.61C4.044 31.538 4.044 31.34 4.134 31.286C4.548 31.142 5.574 30.674 5.934 30.404C6.006 30.404 6.096 30.44 6.132 30.53C6.096 30.944 6.096 31.214 6.096 31.376C6.096 31.484 6.168 31.574 6.294 31.574C7.05 31.106 7.896 30.656 8.814 30.656C10.308 30.656 10.92 31.682 10.92 32.888V35.984C10.92 37.28 10.956 37.46 11.604 37.55L12 37.604C12.126 37.694 12.09 38 11.964 38.054C11.424 38.018 10.902 38 10.272 38C9.624 38 9.084 38.018 8.598 38.054C8.472 38 8.436 37.694 8.562 37.604L8.904 37.55C9.57 37.442 9.588 37.28 9.588 35.984V33.302C9.588 32.276 9.12 31.52 7.896 31.52C7.212 31.52 6.618 31.808 6.366 32.15C6.132 32.456 6.096 32.708 6.096 33.23V35.984C6.096 37.28 6.132 37.442 6.78 37.55L7.104 37.604C7.23 37.694 7.194 38 7.068 38.054C6.582 38.018 6.06 38 5.43 38C4.782 38 4.242 38.018 3.738 38.054C3.612 38 3.576 37.694 3.702 37.604L4.08 37.55C4.746 37.46 4.764 37.28 4.764 35.984ZM35.461 30.656C35.875 30.656 36.577 30.746 37.063 30.962C37.207 31.088 37.333 31.376 37.333 31.682C37.333 32.006 37.153 32.348 36.937 32.348C36.847 32.348 36.757 32.312 36.685 32.222C36.289 31.736 35.623 31.268 34.885 31.268C33.625 31.268 32.401 32.258 32.401 34.166C32.401 35.57 33.373 37.244 35.299 37.244C36.343 37.244 36.883 36.776 37.297 36.164C37.441 36.128 37.603 36.254 37.621 36.416C37.009 37.748 35.659 38.252 34.615 38.252C33.661 38.252 32.779 37.946 32.149 37.334C31.519 36.722 31.105 35.84 31.105 34.67C31.105 32.726 32.473 30.656 35.461 30.656ZM52.3341 33.392H49.0041C48.5361 33.392 48.5181 33.428 48.5181 33.878C48.5181 35.696 49.5801 37.244 51.5061 37.244C52.1001 37.244 52.6041 37.064 53.1621 36.362C53.3421 36.308 53.4681 36.416 53.4861 36.578C52.8921 37.802 51.5961 38.252 50.6601 38.252C49.4901 38.252 48.5721 37.748 48.0501 37.064C47.5101 36.362 47.2941 35.516 47.2941 34.724C47.2941 32.51 48.7521 30.656 50.9121 30.656C52.4601 30.656 53.4681 31.718 53.4681 32.798C53.4681 33.05 53.4321 33.194 53.3961 33.266C53.3421 33.374 53.0901 33.392 52.3341 33.392ZM48.8421 32.852H50.1201C51.4521 32.852 51.8481 32.78 51.9921 32.672C52.0461 32.636 52.1001 32.564 52.1001 32.33C52.1001 31.826 51.7581 31.196 50.7141 31.196C49.6521 31.196 48.7341 32.168 48.7161 32.762C48.7161 32.798 48.7161 32.852 48.8421 32.852Z" fill="black"/>
<path id="i" d="M19.764 31.984V28.834C19.764 28.132 19.764 28.042 19.278 27.718L19.116 27.61C19.044 27.538 19.044 27.34 19.134 27.286C19.548 27.142 20.574 26.674 20.988 26.404C21.078 26.404 21.15 26.44 21.168 26.512C21.132 27.142 21.096 28.006 21.096 28.744V31.984C21.096 33.28 21.132 33.46 21.78 33.55L22.158 33.604C22.284 33.694 22.248 34 22.122 34.054C21.582 34.018 21.06 34 20.43 34C19.782 34 19.242 34.018 18.738 34.054C18.612 34 18.576 33.694 18.702 33.604L19.08 33.55C19.746 33.46 19.764 33.28 19.764 31.984ZM20.358 22.768C20.898 22.768 21.258 23.2 21.258 23.704C21.258 24.352 20.808 24.64 20.304 24.64C19.746 24.64 19.386 24.226 19.386 23.74C19.386 23.146 19.818 22.768 20.358 22.768Z" fill="black"/>
</g>
<g id="very">
<path id="v e r" d="M40.988 13.344L39.476 9.69C39.206 9.024 39.044 8.448 38.396 8.358L38.036 8.304C37.928 8.16 37.946 7.908 38.09 7.854C38.54 7.89 39.17 7.908 39.782 7.908C40.268 7.908 40.628 7.89 41.24 7.854C41.366 7.926 41.384 8.214 41.258 8.304L41.042 8.34C40.484 8.43 40.466 8.52 40.646 9.06C41.06 10.302 41.582 11.562 41.996 12.498C42.158 12.858 42.23 13.02 42.284 13.074C42.356 13.02 42.482 12.768 42.626 12.39L43.652 9.744C43.904 9.114 43.976 8.736 43.976 8.628C43.976 8.466 43.868 8.394 43.652 8.358L43.238 8.304C43.13 8.178 43.148 7.926 43.274 7.854C43.832 7.89 44.282 7.908 44.624 7.908C45.074 7.908 45.38 7.89 45.884 7.854C46.01 7.926 46.028 8.196 45.92 8.304L45.65 8.34C45.02 8.43 44.858 8.898 44.336 9.906C44.084 10.392 42.968 13.002 42.68 13.74C42.5 14.19 42.32 14.604 42.086 15.216C42.05 15.27 41.978 15.288 41.906 15.288C41.816 15.288 41.726 15.27 41.672 15.216C41.528 14.712 41.258 14.01 40.988 13.344ZM55.9395 10.392H52.6095C52.1415 10.392 52.1235 10.428 52.1235 10.878C52.1235 12.696 53.1855 14.244 55.1115 14.244C55.7055 14.244 56.2095 14.064 56.7675 13.362C56.9475 13.308 57.0735 13.416 57.0915 13.578C56.4975 14.802 55.2015 15.252 54.2655 15.252C53.0955 15.252 52.1775 14.748 51.6555 14.064C51.1155 13.362 50.8995 12.516 50.8995 11.724C50.8995 9.51 52.3575 7.656 54.5175 7.656C56.0655 7.656 57.0735 8.718 57.0735 9.798C57.0735 10.05 57.0375 10.194 57.0015 10.266C56.9475 10.374 56.6955 10.392 55.9395 10.392ZM52.4475 9.852H53.7255C55.0575 9.852 55.4535 9.78 55.5975 9.672C55.6515 9.636 55.7055 9.564 55.7055 9.33C55.7055 8.826 55.3635 8.196 54.3195 8.196C53.2575 8.196 52.3395 9.168 52.3215 9.762C52.3215 9.798 52.3215 9.852 52.4475 9.852ZM63.6703 12.984V9.834C63.6703 9.132 63.6703 9.042 63.1843 8.718L63.0223 8.61C62.9503 8.538 62.9503 8.34 63.0403 8.286C63.4543 8.142 64.4083 7.674 64.8583 7.404C64.9483 7.422 65.0023 7.458 65.0023 7.53V8.574C65.0023 8.664 65.0203 8.718 65.0563 8.736C65.6863 8.214 66.3703 7.656 67.0363 7.656C67.4863 7.656 67.8463 7.944 67.8463 8.376C67.8463 8.97 67.3603 9.204 67.0723 9.204C66.8923 9.204 66.8023 9.15 66.6763 9.078C66.4062 8.898 66.1363 8.79 65.8843 8.79C65.5963 8.79 65.3803 8.952 65.2363 9.15C65.0563 9.402 65.0023 9.924 65.0023 10.536V12.984C65.0023 14.28 65.0383 14.496 65.7223 14.55L66.3703 14.604C66.4963 14.694 66.4603 15 66.3343 15.054C65.4883 15.018 64.9663 15 64.3363 15C63.6883 15 63.1483 15.018 62.6803 15.054C62.5543 15 62.5183 14.694 62.6443 14.604L62.9863 14.55C63.6523 14.442 63.6703 14.28 63.6703 12.984Z" fill="black"/>
<path id="y" d="M76.224 23.482C75.702 23.482 75.432 23.158 75.432 22.708C75.432 22.222 75.756 21.988 76.152 21.988H76.494C76.782 21.988 76.962 21.862 77.088 21.664C77.61 20.854 77.97 20.098 78.132 19.666C78.186 19.522 78.312 19.144 78.312 18.892C78.312 18.532 78.24 18.316 78.006 17.65L76.602 13.798C76.296 12.952 76.17 12.52 75.54 12.394L75.09 12.304C74.982 12.214 75 11.908 75.144 11.854C75.72 11.89 76.26 11.908 76.854 11.908C77.34 11.908 77.844 11.89 78.42 11.854C78.564 11.908 78.582 12.214 78.456 12.304L78.006 12.394C77.754 12.448 77.61 12.502 77.61 12.628C77.61 12.844 78.024 14.014 78.132 14.32L78.708 15.976C78.816 16.264 79.158 17.218 79.23 17.254C79.284 17.218 79.572 16.66 79.896 15.922L80.508 14.5C80.904 13.564 81.138 12.898 81.138 12.7C81.138 12.574 81.03 12.448 80.706 12.394L80.148 12.304C80.022 12.214 80.04 11.908 80.184 11.854C80.76 11.89 81.3 11.908 81.768 11.908C82.218 11.908 82.632 11.89 83.136 11.854C83.28 11.926 83.298 12.196 83.172 12.304L82.866 12.358C82.272 12.466 81.948 12.988 81.336 14.266L80.328 16.336C79.734 17.542 78.258 20.674 77.376 22.636C77.07 23.32 76.638 23.482 76.224 23.482Z" fill="black"/>
</g>
<path id="Ellipse 1" d="M100.5 34C100.5 43.172 94.9783 51.5347 85.9296 57.6269C76.884 63.717 64.3592 67.5 50.5 67.5C36.6408 67.5 24.116 63.717 15.0703 57.6269C6.02168 51.5347 0.5 43.172 0.5 34C0.5 24.828 6.02168 16.4653 15.0703 10.3731C24.116 4.28301 36.6408 0.5 50.5 0.5C64.3592 0.5 76.884 4.28301 85.9296 10.3731C94.9783 16.4653 100.5 24.828 100.5 34Z" stroke="#FF0000"/>
</g>
</svg>
