<svg width="244" height="18" viewBox="0 0 244 18" fill="none" xmlns="http://www.w3.org/2000/svg">
<path d="M1.35 11.434V2.848C1.35 1.786 1.332 1.678 0.792 1.354L0.612 1.246C0.522 1.192 0.522 0.94 0.612 0.885999C1.026 0.723999 1.89 0.489999 2.574 0.129999C2.646 0.129999 2.718 0.165999 2.754 0.237999C2.718 0.868 2.682 1.678 2.682 2.47V5.872C2.682 6.178 2.754 6.25 2.862 6.25C3.33 5.98 4.05 5.656 4.932 5.656C6.984 5.656 8.37 7.204 8.37 9.184C8.37 11.578 6.642 13.252 4.23 13.252C3.564 13.252 3.06 13.126 2.7 13.018C2.322 12.892 2.088 12.784 1.944 12.784C1.8 12.784 1.656 12.928 1.566 13.054C1.548 13.072 1.53 13.072 1.494 13.072C1.422 13.072 1.35 13.036 1.314 12.964C1.332 12.712 1.35 12.37 1.35 11.434ZM2.682 7.744V10.552C2.682 11.182 2.826 11.74 3.132 12.118C3.438 12.496 3.924 12.712 4.5 12.712C6.192 12.712 6.858 11.272 6.858 9.724C6.858 7.87 5.904 6.43 4.122 6.43C3.582 6.43 3.15 6.556 2.898 6.718C2.718 6.844 2.682 7.042 2.682 7.744ZM15.57 8.392H12.24C11.772 8.392 11.754 8.428 11.754 8.878C11.754 10.696 12.816 12.244 14.742 12.244C15.336 12.244 15.84 12.064 16.398 11.362C16.578 11.308 16.704 11.416 16.722 11.578C16.128 12.802 14.832 13.252 13.896 13.252C12.726 13.252 11.808 12.748 11.286 12.064C10.746 11.362 10.53 10.516 10.53 9.724C10.53 7.51 11.988 5.656 14.148 5.656C15.696 5.656 16.704 6.718 16.704 7.798C16.704 8.05 16.668 8.194 16.632 8.266C16.578 8.374 16.326 8.392 15.57 8.392ZM12.078 7.852H13.356C14.688 7.852 15.084 7.78 15.228 7.672C15.282 7.636 15.336 7.564 15.336 7.33C15.336 6.826 14.994 6.196 13.95 6.196C12.888 6.196 11.97 7.168 11.952 7.762C11.952 7.798 11.952 7.852 12.078 7.852ZM21.2847 5.656C22.0407 5.656 22.7067 5.836 22.8687 5.98C23.0307 6.376 23.1567 6.952 23.1567 7.438C23.0847 7.564 22.8147 7.6 22.7247 7.492C22.4187 6.7 21.8787 6.178 21.1407 6.178C20.4387 6.178 19.9887 6.628 19.9887 7.276C19.9887 8.014 20.7447 8.41 21.3747 8.77C22.3287 9.31 23.2107 9.922 23.2107 11.2C23.2107 12.568 21.9507 13.252 20.6187 13.252C19.7727 13.252 19.1427 13.072 18.6927 12.712C18.5487 12.37 18.4407 11.488 18.4767 10.894C18.5667 10.786 18.8007 10.768 18.8907 10.876C19.1967 11.866 19.7727 12.73 20.7987 12.73C21.4467 12.73 22.0047 12.352 22.0047 11.578C22.0047 10.75 21.2847 10.3 20.6187 9.922C19.5747 9.328 18.8367 8.698 18.8367 7.708C18.8367 6.394 19.9167 5.656 21.2847 5.656ZM26.1851 15.574V7.834C26.1851 7.132 26.1851 7.042 25.6991 6.718L25.5371 6.61C25.4651 6.538 25.4651 6.34 25.5551 6.286C26.0231 6.088 26.8691 5.656 27.3371 5.314C27.4451 5.314 27.5171 5.35 27.5531 5.44C27.5171 5.764 27.4811 6.034 27.4811 6.268C27.4811 6.394 27.5171 6.502 27.6431 6.502C27.8771 6.394 29.0111 5.656 30.1631 5.656C31.9811 5.656 33.1511 7.132 33.1511 8.95C33.1511 11.452 31.3151 13.252 28.7591 13.252C28.4351 13.252 27.9311 13.216 27.7691 13.18C27.6071 13.216 27.5171 13.306 27.5171 13.684V15.574C27.5171 16.852 27.5531 17.014 28.2011 17.104L28.9031 17.194C29.0291 17.284 28.9931 17.59 28.8671 17.644C28.0031 17.608 27.4811 17.59 26.8511 17.59C26.2031 17.59 25.6631 17.608 25.1591 17.644C25.0331 17.59 24.9971 17.284 25.1231 17.194L25.5011 17.14C26.1671 17.05 26.1851 16.87 26.1851 15.574ZM27.5171 8.086V11.182C27.5171 11.758 27.6971 11.974 28.0571 12.262C28.4171 12.532 28.9751 12.658 29.3531 12.658C30.8291 12.658 31.6931 11.29 31.6931 9.418C31.6931 7.978 30.8831 6.52 29.2631 6.52C28.4891 6.52 27.9311 6.808 27.7331 7.024C27.5711 7.222 27.5171 7.492 27.5171 8.086ZM39.1421 5.656C41.1581 5.656 42.7961 7.168 42.7961 9.382C42.7961 11.632 41.2481 13.252 38.9981 13.252C36.9281 13.252 35.3081 11.794 35.3081 9.544C35.3081 7.276 37.0181 5.656 39.1421 5.656ZM41.2481 9.67C41.2481 8.14 40.6361 6.196 38.9261 6.196C37.7381 6.196 36.8561 7.33 36.8561 9.31C36.8561 10.948 37.5941 12.712 39.1781 12.712C40.7621 12.712 41.2481 11.056 41.2481 9.67ZM45.916 10.984V2.848C45.916 1.786 45.898 1.678 45.358 1.354L45.178 1.246C45.088 1.192 45.088 0.94 45.178 0.885999C45.628 0.741999 46.474 0.471999 47.122 0.129999C47.194 0.129999 47.266 0.165999 47.302 0.237999C47.284 0.778 47.248 1.678 47.248 2.47V8.644C47.248 8.878 47.266 8.914 47.572 8.914C47.968 8.914 48.31 8.716 48.796 8.212L49.534 7.42C50.038 6.88 50.164 6.682 50.164 6.592C50.164 6.502 50.074 6.448 49.768 6.412L49.336 6.358C49.174 6.304 49.174 5.962 49.336 5.908H49.75C50.542 5.908 51.604 5.872 52.612 5.764C52.738 5.818 52.756 6.124 52.648 6.214L52.072 6.322C51.712 6.394 51.406 6.574 50.938 6.952C50.236 7.51 49.624 8.158 49.3 8.464C49.084 8.662 49.066 8.752 49.174 8.896C49.48 9.31 49.768 9.652 50.38 10.336C51.082 11.128 51.712 11.83 52.072 12.172C52.324 12.406 52.684 12.514 53.008 12.568L53.26 12.604C53.386 12.694 53.368 13 53.224 13.054C52.702 13.018 52.09 13 51.514 13C50.794 13 50.164 13.018 49.642 13.054C49.498 12.982 49.48 12.676 49.606 12.604L49.93 12.55C50.2 12.514 50.38 12.478 50.38 12.37C50.38 12.262 50.308 12.136 50.074 11.866L48.148 9.634C47.986 9.454 47.788 9.382 47.59 9.382C47.266 9.382 47.248 9.436 47.248 9.994V10.984C47.248 12.28 47.284 12.46 47.932 12.55L48.364 12.604C48.49 12.694 48.454 13 48.328 13.054C47.734 13.018 47.212 13 46.582 13C45.934 13 45.394 13.018 44.854 13.054C44.728 13 44.692 12.694 44.836 12.604L45.232 12.55C45.898 12.46 45.916 12.28 45.916 10.984ZM59.5856 8.392H56.2556C55.7876 8.392 55.7696 8.428 55.7696 8.878C55.7696 10.696 56.8316 12.244 58.7576 12.244C59.3516 12.244 59.8556 12.064 60.4136 11.362C60.5936 11.308 60.7196 11.416 60.7376 11.578C60.1436 12.802 58.8476 13.252 57.9116 13.252C56.7416 13.252 55.8236 12.748 55.3016 12.064C54.7616 11.362 54.5456 10.516 54.5456 9.724C54.5456 7.51 56.0036 5.656 58.1636 5.656C59.7116 5.656 60.7196 6.718 60.7196 7.798C60.7196 8.05 60.6836 8.194 60.6476 8.266C60.5936 8.374 60.3416 8.392 59.5856 8.392ZM56.0936 7.852H57.3716C58.7036 7.852 59.0996 7.78 59.2436 7.672C59.2976 7.636 59.3516 7.564 59.3516 7.33C59.3516 6.826 59.0096 6.196 57.9656 6.196C56.9036 6.196 55.9856 7.168 55.9676 7.762C55.9676 7.798 55.9676 7.852 56.0936 7.852ZM69.4763 10.048L71.6183 9.274C71.8883 9.184 71.9243 9.022 71.9243 8.752L71.9423 7.924C71.9603 7.258 71.7443 6.358 70.6283 6.358C70.1243 6.358 69.5123 6.61 69.4763 7.168C69.4583 7.456 69.4403 7.672 69.2963 7.78C69.0263 7.996 68.5403 8.122 68.2703 8.122C68.1083 8.122 68.0183 8.032 68.0183 7.87C68.0183 6.934 70.0523 5.656 71.3663 5.656C72.6623 5.656 73.2923 6.412 73.2383 7.762L73.1303 10.894C73.0943 11.722 73.2563 12.46 73.9583 12.46C74.1383 12.46 74.3003 12.406 74.4083 12.352C74.4983 12.298 74.5883 12.226 74.6423 12.226C74.7143 12.226 74.7683 12.334 74.7683 12.46C74.7683 12.55 74.1383 13.252 73.2563 13.252C72.8243 13.252 72.3923 13.09 72.0863 12.694C72.0143 12.586 71.9063 12.442 71.7983 12.442C71.6723 12.442 71.4563 12.604 71.0963 12.802C70.7003 13.018 70.3043 13.252 69.8003 13.252C69.2783 13.252 68.8463 13.108 68.5403 12.838C68.1983 12.532 67.9823 12.082 67.9823 11.578C67.9823 10.876 68.3243 10.462 69.4763 10.048ZM69.3683 11.362C69.3683 11.668 69.5843 12.442 70.5023 12.442C70.8623 12.442 71.4203 12.172 71.6003 11.992C71.8163 11.776 71.8163 11.524 71.8343 11.146L71.8703 10.084C71.8703 9.886 71.7983 9.85 71.6903 9.85C71.5823 9.85 71.2763 9.922 70.9523 10.03C69.8903 10.39 69.3683 10.66 69.3683 11.362ZM77.0597 15.574V7.834C77.0597 7.132 77.0597 7.042 76.5737 6.718L76.4117 6.61C76.3397 6.538 76.3397 6.34 76.4297 6.286C76.8977 6.088 77.7437 5.656 78.2117 5.314C78.3197 5.314 78.3917 5.35 78.4277 5.44C78.3917 5.764 78.3557 6.034 78.3557 6.268C78.3557 6.394 78.3917 6.502 78.5177 6.502C78.7517 6.394 79.8857 5.656 81.0377 5.656C82.8557 5.656 84.0257 7.132 84.0257 8.95C84.0257 11.452 82.1897 13.252 79.6337 13.252C79.3097 13.252 78.8057 13.216 78.6437 13.18C78.4817 13.216 78.3917 13.306 78.3917 13.684V15.574C78.3917 16.852 78.4277 17.014 79.0757 17.104L79.7777 17.194C79.9037 17.284 79.8677 17.59 79.7417 17.644C78.8777 17.608 78.3557 17.59 77.7257 17.59C77.0777 17.59 76.5377 17.608 76.0337 17.644C75.9077 17.59 75.8717 17.284 75.9977 17.194L76.3757 17.14C77.0417 17.05 77.0597 16.87 77.0597 15.574ZM78.3917 8.086V11.182C78.3917 11.758 78.5717 11.974 78.9317 12.262C79.2917 12.532 79.8497 12.658 80.2277 12.658C81.7037 12.658 82.5677 11.29 82.5677 9.418C82.5677 7.978 81.7577 6.52 80.1377 6.52C79.3637 6.52 78.8057 6.808 78.6077 7.024C78.4457 7.222 78.3917 7.492 78.3917 8.086ZM87.0827 15.574V7.834C87.0827 7.132 87.0827 7.042 86.5967 6.718L86.4347 6.61C86.3627 6.538 86.3627 6.34 86.4527 6.286C86.9207 6.088 87.7667 5.656 88.2347 5.314C88.3427 5.314 88.4147 5.35 88.4507 5.44C88.4147 5.764 88.3787 6.034 88.3787 6.268C88.3787 6.394 88.4147 6.502 88.5407 6.502C88.7747 6.394 89.9087 5.656 91.0607 5.656C92.8787 5.656 94.0487 7.132 94.0487 8.95C94.0487 11.452 92.2127 13.252 89.6567 13.252C89.3327 13.252 88.8287 13.216 88.6667 13.18C88.5047 13.216 88.4147 13.306 88.4147 13.684V15.574C88.4147 16.852 88.4507 17.014 89.0987 17.104L89.8007 17.194C89.9267 17.284 89.8907 17.59 89.7647 17.644C88.9007 17.608 88.3787 17.59 87.7487 17.59C87.1007 17.59 86.5607 17.608 86.0567 17.644C85.9307 17.59 85.8947 17.284 86.0207 17.194L86.3987 17.14C87.0647 17.05 87.0827 16.87 87.0827 15.574ZM88.4147 8.086V11.182C88.4147 11.758 88.5947 11.974 88.9547 12.262C89.3147 12.532 89.8727 12.658 90.2507 12.658C91.7267 12.658 92.5907 11.29 92.5907 9.418C92.5907 7.978 91.7807 6.52 90.1607 6.52C89.3867 6.52 88.8287 6.808 88.6307 7.024C88.4687 7.222 88.4147 7.492 88.4147 8.086ZM98.9238 5.656C99.6798 5.656 100.346 5.836 100.508 5.98C100.67 6.376 100.796 6.952 100.796 7.438C100.724 7.564 100.454 7.6 100.364 7.492C100.058 6.7 99.5178 6.178 98.7798 6.178C98.0778 6.178 97.6278 6.628 97.6278 7.276C97.6278 8.014 98.3838 8.41 99.0138 8.77C99.9678 9.31 100.85 9.922 100.85 11.2C100.85 12.568 99.5898 13.252 98.2578 13.252C97.4118 13.252 96.7818 13.072 96.3318 12.712C96.1878 12.37 96.0798 11.488 96.1158 10.894C96.2058 10.786 96.4398 10.768 96.5298 10.876C96.8358 11.866 97.4118 12.73 98.4378 12.73C99.0858 12.73 99.6438 12.352 99.6438 11.578C99.6438 10.75 98.9238 10.3 98.2578 9.922C97.2138 9.328 96.4758 8.698 96.4758 7.708C96.4758 6.394 97.5558 5.656 98.9238 5.656ZM112.968 6.664H111.042C110.736 6.664 110.736 6.7 110.736 7.186V10.984C110.736 12.28 110.772 12.496 111.42 12.55L112.068 12.604C112.194 12.694 112.158 13 112.032 13.054C111.222 13.018 110.7 13 110.07 13C109.422 13 108.882 13.018 108.342 13.054C108.216 13 108.18 12.694 108.306 12.604L108.72 12.55C109.386 12.46 109.404 12.28 109.404 10.984V7.186C109.404 6.7 109.404 6.664 109.044 6.664H108.414C108.306 6.592 108.288 6.43 108.36 6.322L109.134 5.944C109.278 5.872 109.404 5.764 109.404 5.584C109.404 4.54 109.53 3.424 109.962 2.416C110.412 1.39 111.42 0.129999 113.202 0.129999C114.156 0.129999 114.966 0.561999 114.966 1.21C114.966 1.57 114.624 1.858 114.282 1.858C114.084 1.858 113.976 1.786 113.85 1.642C113.508 1.246 113.004 0.85 112.41 0.85C111.852 0.85 111.402 1.192 111.132 1.84C110.808 2.668 110.736 3.982 110.736 4.882V5.404C110.736 5.89 110.736 5.908 111.042 5.908H113.094C113.292 6.088 113.166 6.592 112.968 6.664ZM118.279 5.656C120.295 5.656 121.933 7.168 121.933 9.382C121.933 11.632 120.385 13.252 118.135 13.252C116.065 13.252 114.445 11.794 114.445 9.544C114.445 7.276 116.155 5.656 118.279 5.656ZM120.385 9.67C120.385 8.14 119.773 6.196 118.063 6.196C116.875 6.196 115.993 7.33 115.993 9.31C115.993 10.948 116.731 12.712 118.315 12.712C119.899 12.712 120.385 11.056 120.385 9.67ZM125.233 10.984V7.834C125.233 7.132 125.233 7.042 124.747 6.718L124.585 6.61C124.513 6.538 124.513 6.34 124.603 6.286C125.017 6.142 125.971 5.674 126.421 5.404C126.511 5.422 126.565 5.458 126.565 5.53V6.574C126.565 6.664 126.583 6.718 126.619 6.736C127.249 6.214 127.933 5.656 128.599 5.656C129.049 5.656 129.409 5.944 129.409 6.376C129.409 6.97 128.923 7.204 128.635 7.204C128.455 7.204 128.365 7.15 128.239 7.078C127.969 6.898 127.699 6.79 127.447 6.79C127.159 6.79 126.943 6.952 126.799 7.15C126.619 7.402 126.565 7.924 126.565 8.536V10.984C126.565 12.28 126.601 12.496 127.285 12.55L127.933 12.604C128.059 12.694 128.023 13 127.897 13.054C127.051 13.018 126.529 13 125.899 13C125.251 13 124.711 13.018 124.243 13.054C124.117 13 124.081 12.694 124.207 12.604L124.549 12.55C125.215 12.442 125.233 12.28 125.233 10.984ZM143.863 11.272L143.071 8.824C142.945 8.428 142.873 8.374 142.333 8.374H139.615C139.165 8.374 139.057 8.428 138.931 8.806L138.301 10.696C138.031 11.506 137.905 11.992 137.905 12.19C137.905 12.406 137.995 12.514 138.427 12.55L139.021 12.604C139.147 12.694 139.147 12.982 138.985 13.054C138.517 13.018 137.959 13.018 137.113 13C136.519 13 135.871 13.036 135.385 13.054C135.277 12.982 135.241 12.694 135.349 12.604L135.943 12.55C136.375 12.514 136.771 12.316 137.023 11.668C137.347 10.84 137.851 9.67 138.607 7.654L140.443 2.794C140.695 2.146 140.803 1.804 140.749 1.516C141.181 1.39 141.487 1.066 141.685 0.831999C141.793 0.831999 141.919 0.868 141.955 0.993999C142.189 1.786 142.477 2.614 142.747 3.406L145.213 10.642C145.735 12.19 145.969 12.46 146.743 12.55L147.229 12.604C147.355 12.694 147.319 12.982 147.229 13.054C146.491 13.018 145.861 13 145.051 13C144.187 13 143.503 13.036 142.981 13.054C142.837 12.982 142.819 12.694 142.945 12.604L143.467 12.55C143.845 12.514 144.097 12.406 144.097 12.226C144.097 12.028 144.007 11.704 143.863 11.272ZM140.641 4.09L139.507 7.222C139.363 7.636 139.381 7.654 139.885 7.654H142.099C142.621 7.654 142.657 7.582 142.495 7.096L141.523 4.162C141.379 3.73 141.217 3.244 141.109 3.028H141.073C141.019 3.118 140.839 3.55 140.641 4.09ZM149.179 15.574V7.834C149.179 7.132 149.179 7.042 148.693 6.718L148.531 6.61C148.459 6.538 148.459 6.34 148.549 6.286C149.017 6.088 149.863 5.656 150.331 5.314C150.439 5.314 150.511 5.35 150.547 5.44C150.511 5.764 150.475 6.034 150.475 6.268C150.475 6.394 150.511 6.502 150.637 6.502C150.871 6.394 152.005 5.656 153.157 5.656C154.975 5.656 156.145 7.132 156.145 8.95C156.145 11.452 154.309 13.252 151.753 13.252C151.429 13.252 150.925 13.216 150.763 13.18C150.601 13.216 150.511 13.306 150.511 13.684V15.574C150.511 16.852 150.547 17.014 151.195 17.104L151.897 17.194C152.023 17.284 151.987 17.59 151.861 17.644C150.997 17.608 150.475 17.59 149.845 17.59C149.197 17.59 148.657 17.608 148.153 17.644C148.027 17.59 147.991 17.284 148.117 17.194L148.495 17.14C149.161 17.05 149.179 16.87 149.179 15.574ZM150.511 8.086V11.182C150.511 11.758 150.691 11.974 151.051 12.262C151.411 12.532 151.969 12.658 152.347 12.658C153.823 12.658 154.687 11.29 154.687 9.418C154.687 7.978 153.877 6.52 152.257 6.52C151.483 6.52 150.925 6.808 150.727 7.024C150.565 7.222 150.511 7.492 150.511 8.086ZM159.202 15.574V7.834C159.202 7.132 159.202 7.042 158.716 6.718L158.554 6.61C158.482 6.538 158.482 6.34 158.572 6.286C159.04 6.088 159.886 5.656 160.354 5.314C160.462 5.314 160.534 5.35 160.57 5.44C160.534 5.764 160.498 6.034 160.498 6.268C160.498 6.394 160.534 6.502 160.66 6.502C160.894 6.394 162.028 5.656 163.18 5.656C164.998 5.656 166.168 7.132 166.168 8.95C166.168 11.452 164.332 13.252 161.776 13.252C161.452 13.252 160.948 13.216 160.786 13.18C160.624 13.216 160.534 13.306 160.534 13.684V15.574C160.534 16.852 160.57 17.014 161.218 17.104L161.92 17.194C162.046 17.284 162.01 17.59 161.884 17.644C161.02 17.608 160.498 17.59 159.868 17.59C159.22 17.59 158.68 17.608 158.176 17.644C158.05 17.59 158.014 17.284 158.14 17.194L158.518 17.14C159.184 17.05 159.202 16.87 159.202 15.574ZM160.534 8.086V11.182C160.534 11.758 160.714 11.974 161.074 12.262C161.434 12.532 161.992 12.658 162.37 12.658C163.846 12.658 164.71 11.29 164.71 9.418C164.71 7.978 163.9 6.52 162.28 6.52C161.506 6.52 160.948 6.808 160.75 7.024C160.588 7.222 160.534 7.492 160.534 8.086ZM170.611 2.47V10.984C170.611 12.28 170.647 12.46 171.295 12.55L171.727 12.604C171.853 12.694 171.817 13 171.691 13.054C171.097 13.018 170.575 13 169.945 13C169.297 13 168.757 13.018 168.217 13.054C168.091 13 168.055 12.694 168.181 12.604L168.595 12.55C169.261 12.46 169.279 12.28 169.279 10.984V2.848C169.279 1.786 169.261 1.678 168.721 1.354L168.541 1.246C168.451 1.192 168.451 0.94 168.541 0.885999C168.991 0.741999 169.837 0.471999 170.485 0.129999C170.557 0.129999 170.629 0.165999 170.665 0.237999C170.647 0.778 170.611 1.678 170.611 2.47ZM178.713 8.392H175.383C174.915 8.392 174.897 8.428 174.897 8.878C174.897 10.696 175.959 12.244 177.885 12.244C178.479 12.244 178.983 12.064 179.541 11.362C179.721 11.308 179.847 11.416 179.865 11.578C179.271 12.802 177.975 13.252 177.039 13.252C175.869 13.252 174.951 12.748 174.429 12.064C173.889 11.362 173.673 10.516 173.673 9.724C173.673 7.51 175.131 5.656 177.291 5.656C178.839 5.656 179.847 6.718 179.847 7.798C179.847 8.05 179.811 8.194 179.775 8.266C179.721 8.374 179.469 8.392 178.713 8.392ZM175.221 7.852H176.499C177.831 7.852 178.227 7.78 178.371 7.672C178.425 7.636 178.479 7.564 178.479 7.33C178.479 6.826 178.137 6.196 177.093 6.196C176.031 6.196 175.113 7.168 175.095 7.762C175.095 7.798 175.095 7.852 175.221 7.852ZM189.827 5.656C190.583 5.656 191.249 5.836 191.411 5.98C191.573 6.376 191.699 6.952 191.699 7.438C191.627 7.564 191.357 7.6 191.267 7.492C190.961 6.7 190.421 6.178 189.683 6.178C188.981 6.178 188.531 6.628 188.531 7.276C188.531 8.014 189.287 8.41 189.917 8.77C190.871 9.31 191.753 9.922 191.753 11.2C191.753 12.568 190.493 13.252 189.161 13.252C188.315 13.252 187.685 13.072 187.235 12.712C187.091 12.37 186.983 11.488 187.019 10.894C187.109 10.786 187.343 10.768 187.433 10.876C187.739 11.866 188.315 12.73 189.341 12.73C189.989 12.73 190.547 12.352 190.547 11.578C190.547 10.75 189.827 10.3 189.161 9.922C188.117 9.328 187.379 8.698 187.379 7.708C187.379 6.394 188.459 5.656 189.827 5.656ZM194.422 17.482C193.9 17.482 193.63 17.158 193.63 16.708C193.63 16.222 193.954 15.988 194.35 15.988H194.692C194.98 15.988 195.16 15.862 195.286 15.664C195.808 14.854 196.168 14.098 196.33 13.666C196.384 13.522 196.51 13.144 196.51 12.892C196.51 12.532 196.438 12.316 196.204 11.65L194.8 7.798C194.494 6.952 194.368 6.52 193.738 6.394L193.288 6.304C193.18 6.214 193.198 5.908 193.342 5.854C193.918 5.89 194.458 5.908 195.052 5.908C195.538 5.908 196.042 5.89 196.618 5.854C196.762 5.908 196.78 6.214 196.654 6.304L196.204 6.394C195.952 6.448 195.808 6.502 195.808 6.628C195.808 6.844 196.222 8.014 196.33 8.32L196.906 9.976C197.014 10.264 197.356 11.218 197.428 11.254C197.482 11.218 197.77 10.66 198.094 9.922L198.706 8.5C199.102 7.564 199.336 6.898 199.336 6.7C199.336 6.574 199.228 6.448 198.904 6.394L198.346 6.304C198.22 6.214 198.238 5.908 198.382 5.854C198.958 5.89 199.498 5.908 199.966 5.908C200.416 5.908 200.83 5.89 201.334 5.854C201.478 5.926 201.496 6.196 201.37 6.304L201.064 6.358C200.47 6.466 200.146 6.988 199.534 8.266L198.526 10.336C197.932 11.542 196.456 14.674 195.574 16.636C195.268 17.32 194.836 17.482 194.422 17.482ZM205.338 5.656C206.094 5.656 206.76 5.836 206.922 5.98C207.084 6.376 207.21 6.952 207.21 7.438C207.138 7.564 206.868 7.6 206.778 7.492C206.472 6.7 205.932 6.178 205.194 6.178C204.492 6.178 204.042 6.628 204.042 7.276C204.042 8.014 204.798 8.41 205.428 8.77C206.382 9.31 207.264 9.922 207.264 11.2C207.264 12.568 206.004 13.252 204.672 13.252C203.826 13.252 203.196 13.072 202.746 12.712C202.602 12.37 202.494 11.488 202.53 10.894C202.62 10.786 202.854 10.768 202.944 10.876C203.25 11.866 203.826 12.73 204.852 12.73C205.5 12.73 206.058 12.352 206.058 11.578C206.058 10.75 205.338 10.3 204.672 9.922C203.628 9.328 202.89 8.698 202.89 7.708C202.89 6.394 203.97 5.656 205.338 5.656ZM213.983 6.664H211.949C211.643 6.664 211.625 6.718 211.625 7.096V10.462C211.625 11.506 211.751 12.46 212.939 12.46C213.119 12.46 213.281 12.424 213.425 12.37C213.587 12.316 213.821 12.118 213.875 12.118C214.019 12.118 214.091 12.316 214.055 12.424C213.731 12.802 213.083 13.252 212.165 13.252C210.617 13.252 210.293 12.388 210.293 11.308V7.186C210.293 6.7 210.275 6.664 209.915 6.664H209.411C209.303 6.592 209.285 6.394 209.357 6.286C209.879 6.124 210.329 5.89 210.509 5.728C210.743 5.512 211.085 5.026 211.265 4.666C211.355 4.63 211.571 4.63 211.643 4.756V5.566C211.643 5.89 211.661 5.908 211.967 5.908H213.965C214.181 6.07 214.145 6.556 213.983 6.664ZM220.798 8.392H217.468C217 8.392 216.982 8.428 216.982 8.878C216.982 10.696 218.044 12.244 219.97 12.244C220.564 12.244 221.068 12.064 221.626 11.362C221.806 11.308 221.932 11.416 221.95 11.578C221.356 12.802 220.06 13.252 219.124 13.252C217.954 13.252 217.036 12.748 216.514 12.064C215.974 11.362 215.758 10.516 215.758 9.724C215.758 7.51 217.216 5.656 219.376 5.656C220.924 5.656 221.932 6.718 221.932 7.798C221.932 8.05 221.896 8.194 221.86 8.266C221.806 8.374 221.554 8.392 220.798 8.392ZM217.306 7.852H218.584C219.916 7.852 220.312 7.78 220.456 7.672C220.51 7.636 220.564 7.564 220.564 7.33C220.564 6.826 220.222 6.196 219.178 6.196C218.116 6.196 217.198 7.168 217.18 7.762C217.18 7.798 217.18 7.852 217.306 7.852ZM234.469 10.984V8.374C234.469 7.15 233.929 6.52 232.795 6.52C232.111 6.52 231.553 6.826 231.301 7.15C231.085 7.42 231.031 7.6 231.031 8.23V10.984C231.031 12.28 231.067 12.46 231.715 12.55L232.093 12.604C232.219 12.694 232.183 13 232.057 13.054C231.517 13.018 230.995 13 230.365 13C229.717 13 229.231 13.018 228.727 13.054C228.601 13 228.565 12.694 228.691 12.604L229.015 12.55C229.681 12.442 229.699 12.28 229.699 10.984V8.374C229.699 7.168 229.159 6.52 228.043 6.52C227.305 6.52 226.801 6.844 226.531 7.168C226.351 7.384 226.261 7.618 226.261 8.194V10.984C226.261 12.28 226.297 12.442 226.945 12.55L227.269 12.604C227.395 12.694 227.359 13 227.233 13.054C226.747 13.018 226.225 13 225.595 13C224.947 13 224.407 13.018 223.849 13.054C223.723 13 223.687 12.694 223.813 12.604L224.245 12.55C224.911 12.46 224.929 12.28 224.929 10.984V7.834C224.929 7.132 224.929 7.042 224.443 6.718L224.281 6.61C224.209 6.538 224.209 6.34 224.299 6.286C224.713 6.142 225.739 5.674 226.099 5.404C226.171 5.404 226.261 5.44 226.297 5.53C226.261 5.944 226.261 6.214 226.261 6.376C226.261 6.484 226.333 6.574 226.459 6.574C227.143 6.088 227.989 5.656 228.853 5.656C229.753 5.656 230.257 5.98 230.761 6.718C230.923 6.754 231.049 6.682 231.211 6.574C231.931 6.07 232.813 5.656 233.659 5.656C235.099 5.656 235.801 6.646 235.801 7.888V10.984C235.801 12.28 235.837 12.46 236.485 12.55L236.917 12.604C237.043 12.694 237.007 13 236.881 13.054C236.287 13.018 235.765 13 235.135 13C234.487 13 234.001 13.018 233.497 13.054C233.371 13 233.335 12.694 233.461 12.604L233.785 12.55C234.451 12.442 234.469 12.28 234.469 10.984ZM241.581 5.656C242.337 5.656 243.003 5.836 243.165 5.98C243.327 6.376 243.453 6.952 243.453 7.438C243.381 7.564 243.111 7.6 243.021 7.492C242.715 6.7 242.175 6.178 241.437 6.178C240.735 6.178 240.285 6.628 240.285 7.276C240.285 8.014 241.041 8.41 241.671 8.77C242.625 9.31 243.507 9.922 243.507 11.2C243.507 12.568 242.247 13.252 240.915 13.252C240.069 13.252 239.439 13.072 238.989 12.712C238.845 12.37 238.737 11.488 238.773 10.894C238.863 10.786 239.097 10.768 239.187 10.876C239.493 11.866 240.069 12.73 241.095 12.73C241.743 12.73 242.301 12.352 242.301 11.578C242.301 10.75 241.581 10.3 240.915 9.922C239.871 9.328 239.133 8.698 239.133 7.708C239.133 6.394 240.213 5.656 241.581 5.656Z" fill="black"/>
</svg>
