<svg width="101" height="68" viewBox="0 0 101 68" fill="none" xmlns="http://www.w3.org/2000/svg">
<g id="Logo">
<path id="//" d="M87.94 31.28L83.76 45.32H82.6L86.78 31.28H87.94ZM94.483 31.28L90.303 45.32H89.143L93.323 31.28H94.483Z" fill="black"/>
<g id="apps">
<path id="a" d="M31.36 50.72L33.74 49.86C34.04 49.76 34.08 49.58 34.08 49.28L34.1 48.36C34.12 47.62 33.88 46.62 32.64 46.62C32.08 46.62 31.4 46.9 31.36 47.52C31.34 47.84 31.32 48.08 31.16 48.2C30.86 48.44 30.32 48.58 30.02 48.58C29.84 48.58 29.74 48.48 29.74 48.3C29.74 47.26 32 45.84 33.46 45.84C34.9 45.84 35.6 46.68 35.54 48.18L35.42 51.66C35.38 52.58 35.56 53.4 36.34 53.4C36.54 53.4 36.72 53.34 36.84 53.28C36.94 53.22 37.04 53.14 37.1 53.14C37.18 53.14 37.24 53.26 37.24 53.4C37.24 53.5 36.54 54.28 35.56 54.28C35.08 54.28 34.6 54.1 34.26 53.66C34.18 53.54 34.06 53.38 33.94 53.38C33.8 53.38 33.56 53.56 33.16 53.78C32.72 54.02 32.28 54.28 31.72 54.28C31.14 54.28 30.66 54.12 30.32 53.82C29.94 53.48 29.7 52.98 29.7 52.42C29.7 51.64 30.08 51.18 31.36 50.72ZM31.24 52.18C31.24 52.52 31.48 53.38 32.5 53.38C32.9 53.38 33.52 53.08 33.72 52.88C33.96 52.64 33.96 52.36 33.98 51.94L34.02 50.76C34.02 50.54 33.94 50.5 33.82 50.5C33.7 50.5 33.36 50.58 33 50.7C31.82 51.1 31.24 51.4 31.24 52.18Z" fill="black"/>
<path id="p p s" d="M42.7 60.86V52.26C42.7 51.48 42.7 51.38 42.16 51.02L41.98 50.9C41.9 50.82 41.9 50.6 42 50.54C42.52 50.32 43.46 49.84 43.98 49.46C44.1 49.46 44.18 49.5 44.22 49.6C44.18 49.96 44.14 50.26 44.14 50.52C44.14 50.66 44.18 50.78 44.32 50.78C44.58 50.66 45.84 49.84 47.12 49.84C49.14 49.84 50.44 51.48 50.44 53.5C50.44 56.28 48.4 58.28 45.56 58.28C45.2 58.28 44.64 58.24 44.46 58.2C44.28 58.24 44.18 58.34 44.18 58.76V60.86C44.18 62.28 44.22 62.46 44.94 62.56L45.72 62.66C45.86 62.76 45.82 63.1 45.68 63.16C44.72 63.12 44.14 63.1 43.44 63.1C42.72 63.1 42.12 63.12 41.56 63.16C41.42 63.1 41.38 62.76 41.52 62.66L41.94 62.6C42.68 62.5 42.7 62.3 42.7 60.86ZM44.18 52.54V55.98C44.18 56.62 44.38 56.86 44.78 57.18C45.18 57.48 45.8 57.62 46.22 57.62C47.86 57.62 48.82 56.1 48.82 54.02C48.82 52.42 47.92 50.8 46.12 50.8C45.26 50.8 44.64 51.12 44.42 51.36C44.24 51.58 44.18 51.88 44.18 52.54ZM57.8367 60.86V52.26C57.8367 51.48 57.8367 51.38 57.2967 51.02L57.1167 50.9C57.0367 50.82 57.0367 50.6 57.1367 50.54C57.6567 50.32 58.5967 49.84 59.1167 49.46C59.2367 49.46 59.3167 49.5 59.3567 49.6C59.3167 49.96 59.2767 50.26 59.2767 50.52C59.2767 50.66 59.3167 50.78 59.4567 50.78C59.7167 50.66 60.9767 49.84 62.2567 49.84C64.2767 49.84 65.5767 51.48 65.5767 53.5C65.5767 56.28 63.5367 58.28 60.6967 58.28C60.3367 58.28 59.7767 58.24 59.5967 58.2C59.4167 58.24 59.3167 58.34 59.3167 58.76V60.86C59.3167 62.28 59.3567 62.46 60.0767 62.56L60.8567 62.66C60.9967 62.76 60.9567 63.1 60.8167 63.16C59.8567 63.12 59.2767 63.1 58.5767 63.1C57.8567 63.1 57.2567 63.12 56.6967 63.16C56.5567 63.1 56.5167 62.76 56.6567 62.66L57.0767 62.6C57.8167 62.5 57.8367 62.3 57.8367 60.86ZM59.3167 52.54V55.98C59.3167 56.62 59.5167 56.86 59.9167 57.18C60.3167 57.48 60.9367 57.62 61.3567 57.62C62.9967 57.62 63.9567 56.1 63.9567 54.02C63.9567 52.42 63.0567 50.8 61.2567 50.8C60.3967 50.8 59.7767 51.12 59.5567 51.36C59.3767 51.58 59.3167 51.88 59.3167 52.54ZM74.9934 49.84C75.8334 49.84 76.5734 50.04 76.7534 50.2C76.9334 50.64 77.0734 51.28 77.0734 51.82C76.9934 51.96 76.6934 52 76.5934 51.88C76.2534 51 75.6534 50.42 74.8334 50.42C74.0534 50.42 73.5534 50.92 73.5534 51.64C73.5534 52.46 74.3934 52.9 75.0934 53.3C76.1534 53.9 77.1334 54.58 77.1334 56C77.1334 57.52 75.7334 58.28 74.2534 58.28C73.3134 58.28 72.6134 58.08 72.1134 57.68C71.9534 57.3 71.8334 56.32 71.8734 55.66C71.9734 55.54 72.2334 55.52 72.3334 55.64C72.6734 56.74 73.3134 57.7 74.4534 57.7C75.1734 57.7 75.7934 57.28 75.7934 56.42C75.7934 55.5 74.9934 55 74.2534 54.58C73.0934 53.92 72.2734 53.22 72.2734 52.12C72.2734 50.66 73.4734 49.84 74.9934 49.84Z" fill="black"/>
</g>
<g id="nice">
<path id="n c e" d="M6.96 35.76V32.26C6.96 31.48 6.96 31.38 6.42 31.02L6.24 30.9C6.16 30.82 6.16 30.6 6.26 30.54C6.72 30.38 7.86 29.86 8.26 29.56C8.34 29.56 8.44 29.6 8.48 29.7C8.44 30.16 8.44 30.46 8.44 30.64C8.44 30.76 8.52 30.86 8.66 30.86C9.5 30.34 10.44 29.84 11.46 29.84C13.12 29.84 13.8 30.98 13.8 32.32V35.76C13.8 37.2 13.84 37.4 14.56 37.5L15 37.56C15.14 37.66 15.1 38 14.96 38.06C14.36 38.02 13.78 38 13.08 38C12.36 38 11.76 38.02 11.22 38.06C11.08 38 11.04 37.66 11.18 37.56L11.56 37.5C12.3 37.38 12.32 37.2 12.32 35.76V32.78C12.32 31.64 11.8 30.8 10.44 30.8C9.68 30.8 9.02 31.12 8.74 31.5C8.48 31.84 8.44 32.12 8.44 32.7V35.76C8.44 37.2 8.48 37.38 9.2 37.5L9.56 37.56C9.7 37.66 9.66 38 9.52 38.06C8.98 38.02 8.4 38 7.7 38C6.98 38 6.38 38.02 5.82 38.06C5.68 38 5.64 37.66 5.78 37.56L6.2 37.5C6.94 37.4 6.96 37.2 6.96 35.76ZM41.0678 29.84C41.5278 29.84 42.3078 29.94 42.8478 30.18C43.0078 30.32 43.1478 30.64 43.1478 30.98C43.1478 31.34 42.9478 31.72 42.7078 31.72C42.6078 31.72 42.5078 31.68 42.4278 31.58C41.9878 31.04 41.2478 30.52 40.4278 30.52C39.0278 30.52 37.6678 31.62 37.6678 33.74C37.6678 35.3 38.7478 37.16 40.8878 37.16C42.0478 37.16 42.6478 36.64 43.1078 35.96C43.2678 35.92 43.4478 36.06 43.4678 36.24C42.7878 37.72 41.2878 38.28 40.1278 38.28C39.0678 38.28 38.0878 37.94 37.3878 37.26C36.6878 36.58 36.2278 35.6 36.2278 34.3C36.2278 32.14 37.7478 29.84 41.0678 29.84ZM59.8156 32.88H56.1156C55.5956 32.88 55.5756 32.92 55.5756 33.42C55.5756 35.44 56.7556 37.16 58.8956 37.16C59.5556 37.16 60.1156 36.96 60.7356 36.18C60.9356 36.12 61.0756 36.24 61.0956 36.42C60.4356 37.78 58.9956 38.28 57.9556 38.28C56.6556 38.28 55.6356 37.72 55.0556 36.96C54.4556 36.18 54.2156 35.24 54.2156 34.36C54.2156 31.9 55.8356 29.84 58.2356 29.84C59.9556 29.84 61.0756 31.02 61.0756 32.22C61.0756 32.5 61.0356 32.66 60.9956 32.74C60.9356 32.86 60.6556 32.88 59.8156 32.88ZM55.9356 32.28H57.3556C58.8356 32.28 59.2756 32.2 59.4356 32.08C59.4956 32.04 59.5556 31.96 59.5556 31.7C59.5556 31.14 59.1756 30.44 58.0156 30.44C56.8356 30.44 55.8156 31.52 55.7956 32.18C55.7956 32.22 55.7956 32.28 55.9356 32.28Z" fill="black"/>
<path id="i" d="M21.96 31.76V28.26C21.96 27.48 21.96 27.38 21.42 27.02L21.24 26.9C21.16 26.82 21.16 26.6 21.26 26.54C21.72 26.38 22.86 25.86 23.32 25.56C23.42 25.56 23.5 25.6 23.52 25.68C23.48 26.38 23.44 27.34 23.44 28.16V31.76C23.44 33.2 23.48 33.4 24.2 33.5L24.62 33.56C24.76 33.66 24.72 34 24.58 34.06C23.98 34.02 23.4 34 22.7 34C21.98 34 21.38 34.02 20.82 34.06C20.68 34 20.64 33.66 20.78 33.56L21.2 33.5C21.94 33.4 21.96 33.2 21.96 31.76ZM22.62 21.52C23.22 21.52 23.62 22 23.62 22.56C23.62 23.28 23.12 23.6 22.56 23.6C21.94 23.6 21.54 23.14 21.54 22.6C21.54 21.94 22.02 21.52 22.62 21.52Z" fill="black"/>
</g>
<g id="very">
<path id="v e r" d="M40.32 14.16L38.64 10.1C38.34 9.36 38.16 8.72 37.44 8.62L37.04 8.56C36.92 8.4 36.94 8.12 37.1 8.06C37.6 8.1 38.3 8.12 38.98 8.12C39.52 8.12 39.92 8.1 40.6 8.06C40.74 8.14 40.76 8.46 40.62 8.56L40.38 8.6C39.76 8.7 39.74 8.8 39.94 9.4C40.4 10.78 40.98 12.18 41.44 13.22C41.62 13.62 41.7 13.8 41.76 13.86C41.84 13.8 41.98 13.52 42.14 13.1L43.28 10.16C43.56 9.46 43.64 9.04 43.64 8.92C43.64 8.74 43.52 8.66 43.28 8.62L42.82 8.56C42.7 8.42 42.72 8.14 42.86 8.06C43.48 8.1 43.98 8.12 44.36 8.12C44.86 8.12 45.2 8.1 45.76 8.06C45.9 8.14 45.92 8.44 45.8 8.56L45.5 8.6C44.8 8.7 44.62 9.22 44.04 10.34C43.76 10.88 42.52 13.78 42.2 14.6C42 15.1 41.8 15.56 41.54 16.24C41.5 16.3 41.42 16.32 41.34 16.32C41.24 16.32 41.14 16.3 41.08 16.24C40.92 15.68 40.62 14.9 40.32 14.16ZM56.9328 10.88H53.2328C52.7128 10.88 52.6928 10.92 52.6928 11.42C52.6928 13.44 53.8728 15.16 56.0128 15.16C56.6728 15.16 57.2328 14.96 57.8528 14.18C58.0528 14.12 58.1928 14.24 58.2128 14.42C57.5528 15.78 56.1128 16.28 55.0728 16.28C53.7728 16.28 52.7528 15.72 52.1728 14.96C51.5728 14.18 51.3328 13.24 51.3328 12.36C51.3328 9.9 52.9528 7.84 55.3528 7.84C57.0728 7.84 58.1928 9.02 58.1928 10.22C58.1928 10.5 58.1528 10.66 58.1128 10.74C58.0528 10.86 57.7728 10.88 56.9328 10.88ZM53.0528 10.28H54.4728C55.9528 10.28 56.3928 10.2 56.5528 10.08C56.6128 10.04 56.6728 9.96 56.6728 9.7C56.6728 9.14 56.2928 8.44 55.1328 8.44C53.9528 8.44 52.9328 9.52 52.9128 10.18C52.9128 10.22 52.9128 10.28 53.0528 10.28ZM65.5225 13.76V10.26C65.5225 9.48 65.5225 9.38 64.9825 9.02L64.8025 8.9C64.7225 8.82 64.7225 8.6 64.8225 8.54C65.2825 8.38 66.3425 7.86 66.8425 7.56C66.9425 7.58 67.0025 7.62 67.0025 7.7V8.86C67.0025 8.96 67.0225 9.02 67.0625 9.04C67.7625 8.46 68.5225 7.84 69.2625 7.84C69.7625 7.84 70.1625 8.16 70.1625 8.64C70.1625 9.3 69.6225 9.56 69.3025 9.56C69.1025 9.56 69.0025 9.5 68.8625 9.42C68.5625 9.22 68.2625 9.1 67.9825 9.1C67.6625 9.1 67.4225 9.28 67.2625 9.5C67.0625 9.78 67.0025 10.36 67.0025 11.04V13.76C67.0025 15.2 67.0425 15.44 67.8025 15.5L68.5225 15.56C68.6625 15.66 68.6225 16 68.4825 16.06C67.5425 16.02 66.9625 16 66.2625 16C65.5425 16 64.9425 16.02 64.4225 16.06C64.2825 16 64.2425 15.66 64.3825 15.56L64.7625 15.5C65.5025 15.38 65.5225 15.2 65.5225 13.76Z" fill="black"/>
<path id="y" d="M75.36 25.98C74.78 25.98 74.48 25.62 74.48 25.12C74.48 24.58 74.84 24.32 75.28 24.32H75.66C75.98 24.32 76.18 24.18 76.32 23.96C76.9 23.06 77.3 22.22 77.48 21.74C77.54 21.58 77.68 21.16 77.68 20.88C77.68 20.48 77.6 20.24 77.34 19.5L75.78 15.22C75.44 14.28 75.3 13.8 74.6 13.66L74.1 13.56C73.98 13.46 74 13.12 74.16 13.06C74.8 13.1 75.4 13.12 76.06 13.12C76.6 13.12 77.16 13.1 77.8 13.06C77.96 13.12 77.98 13.46 77.84 13.56L77.34 13.66C77.06 13.72 76.9 13.78 76.9 13.92C76.9 14.16 77.36 15.46 77.48 15.8L78.12 17.64C78.24 17.96 78.62 19.02 78.7 19.06C78.76 19.02 79.08 18.4 79.44 17.58L80.12 16C80.56 14.96 80.82 14.22 80.82 14C80.82 13.86 80.7 13.72 80.34 13.66L79.72 13.56C79.58 13.46 79.6 13.12 79.76 13.06C80.4 13.1 81 13.12 81.52 13.12C82.02 13.12 82.48 13.1 83.04 13.06C83.2 13.14 83.22 13.44 83.08 13.56L82.74 13.62C82.08 13.74 81.72 14.32 81.04 15.74L79.92 18.04C79.26 19.38 77.62 22.86 76.64 25.04C76.3 25.8 75.82 25.98 75.36 25.98Z" fill="black"/>
</g>
<path id="Ellipse 1" d="M100.5 34C100.5 43.172 94.9783 51.5347 85.9296 57.6269C76.884 63.717 64.3593 67.5 50.5 67.5C36.6408 67.5 24.116 63.717 15.0704 57.6269C6.02168 51.5347 0.5 43.172 0.5 34C0.5 24.828 6.02168 16.4653 15.0704 10.3731C24.116 4.28301 36.6408 0.5 50.5 0.5C64.3593 0.5 76.884 4.28301 85.9296 10.3731C94.9783 16.4653 100.5 24.828 100.5 34Z" stroke="#FF0000"/>
</g>
</svg>
