<svg fill="none" height="231" viewBox="0 0 895 231" width="895" xmlns="http://www.w3.org/2000/svg"><path d="m92.037.943985c59.136 0 88.832 42.752015 88.832 87.808015 0 42.24-26.112 74.752-61.952 85.504-.512 1.28.512 2.304 2.048 3.84 13.056 12.544 36.608 33.536 57.088 40.192 9.472 3.072 17.92 3.584 23.808 3.584 2.56 0 8.704-.768 12.288-2.304 1.536.256 2.048 2.56 1.28 3.84-8.192 4.608-19.712 6.656-28.672 6.656-11.776 0-26.368-2.56-41.472-9.472-20.992-9.728-37.888-24.576-47.36-33.792-7.68-7.68-9.984-8.192-17.152-9.472-6.656-1.024-15.872-2.56-25.088-6.144-34.048-12.8-54.783999-43.264-54.783999-79.872 0-51.2 38.399999-90.368015 91.135999-90.368015zm3.328 169.216015c30.72 0 59.904-23.04 59.904-73.472 0-42.24-18.688-87.80801-67.584-87.80801-26.624 0-61.184 18.17601-61.184 74.24001 0 37.888 18.432 87.04 68.864 87.04zm140.524-76.544v42.752c0 17.664 4.352 29.44 23.808 29.44 6.912 0 15.104-2.816 20.736-7.68 3.328-3.072 5.12-6.912 5.12-14.848v-41.984c0-16.64-1.792-17.152-9.472-20.224l-3.328-1.28c-1.792-1.024-1.792-4.608.256-5.632 10.24-.256 24.32-2.048 29.952-4.608 1.28.256 2.048.768 2.304 1.792-.512 4.864-.768 12.8-.768 22.272v43.008c0 20.224.768 27.904 7.936 27.904 3.072 0 6.4-.512 9.984-1.28 1.536 1.28 1.792 6.4-.256 7.424-9.984 2.048-24.832 4.608-33.536 9.472-1.28 0-2.56-.768-3.072-1.792v-10.496c0-2.304-.768-3.584-2.304-3.584-7.68 4.864-20.224 13.312-35.328 13.312-22.528 0-30.976-11.264-30.976-32v-42.752c0-16.128 0-18.432-7.68-21.76l-3.072-1.28c-1.536-1.28-1.28-4.864.512-5.632 11.776-.256 21.76-2.56 27.392-4.608 1.536.256 2.304.768 2.56 1.792-.512 4.352-.768 9.728-.768 22.272zm125.624 51.712v-44.8c0-9.984 0-11.264-6.912-15.872l-2.304-1.536c-1.024-1.024-1.024-3.84.256-4.608 5.888-2.048 20.48-8.704 26.368-12.544 1.28 0 2.304.512 2.56 1.536-.512 8.96-1.024 21.248-1.024 31.744v46.08c0 18.432.512 20.992 9.728 22.272l5.376.768c1.792 1.28 1.28 5.632-.512 6.4-7.68-.512-15.104-.768-24.064-.768-9.216 0-16.896.256-24.064.768-1.792-.768-2.304-5.12-.512-6.4l5.376-.768c9.472-1.28 9.728-3.84 9.728-22.272zm8.448-131.072c7.68 0 12.8 6.144 12.8 13.312 0 9.216-6.4 13.312-13.568 13.312-7.936 0-13.056-5.888-13.056-12.8 0-8.448 6.144-13.824 13.824-13.824zm117.462 69.632h-28.928c-4.352 0-4.608.768-4.608 6.144v47.872c0 14.848 1.792 28.416 18.688 28.416 2.56 0 4.864-.512 6.912-1.28 2.304-.768 5.632-3.584 6.4-3.584 2.048 0 3.072 2.816 2.56 4.352-4.608 5.376-13.824 11.776-26.88 11.776-22.016 0-26.624-12.288-26.624-27.648v-58.624c0-6.912-.256-7.424-5.376-7.424h-7.168c-1.536-1.024-1.792-3.84-.768-5.376 7.424-2.304 13.824-5.632 16.384-7.936 3.328-3.072 8.192-9.984 10.752-15.104 1.28-.512 4.352-.512 5.376 1.28v11.52c0 4.608.256 4.864 4.608 4.864h28.416c3.072 2.304 2.56 9.216.256 10.752zm88.74 0h-28.928c-4.352 0-4.608.768-4.608 6.144v47.872c0 14.848 1.792 28.416 18.688 28.416 2.56 0 4.864-.512 6.912-1.28 2.304-.768 5.632-3.584 6.4-3.584 2.048 0 3.072 2.816 2.56 4.352-4.608 5.376-13.824 11.776-26.88 11.776-22.016 0-26.624-12.288-26.624-27.648v-58.624c0-6.912-.256-7.424-5.376-7.424h-7.168c-1.536-1.024-1.792-3.84-.768-5.376 7.424-2.304 13.824-5.632 16.384-7.936 3.328-3.072 8.192-9.984 10.752-15.104 1.28-.512 4.352-.512 5.376 1.28v11.52c0 4.608.256 4.864 4.608 4.864h28.416c3.072 2.304 2.56 9.216.256 10.752zm94.372 24.576h-47.36c-6.656 0-6.912.512-6.912 6.912 0 25.856 15.104 47.872 42.496 47.872 8.448 0 15.616-2.56 23.552-12.544 2.56-.768 4.352.768 4.608 3.072-8.448 17.408-26.88 23.808-40.192 23.808-16.64 0-29.696-7.168-37.12-16.896-7.68-9.984-10.752-22.016-10.752-33.28 0-31.488 20.736-57.856 51.456-57.856 22.016 0 36.352 15.104 36.352 30.464 0 3.584-.512 5.632-1.024 6.656-.768 1.536-4.352 1.792-15.104 1.792zm-49.664-7.68h18.176c18.944 0 24.576-1.024 26.624-2.56.768-.512 1.536-1.536 1.536-4.864 0-7.168-4.864-16.128-19.712-16.128-15.104 0-28.16 13.824-28.416 22.272 0 .512 0 1.28 1.792 1.28zm105.852 44.544v-44.8c0-9.984 0-11.264-6.912-15.872l-2.304-1.536c-1.024-1.024-1.024-3.84.256-4.608 5.888-2.048 19.456-8.704 25.856-12.544 1.28.256 2.048.768 2.048 1.792v14.848c0 1.28.256 2.048.768 2.304 8.96-7.424 18.688-15.36 28.16-15.36 6.4 0 11.52 4.096 11.52 10.24 0 8.448-6.912 11.776-11.008 11.776-2.56 0-3.84-.768-5.632-1.792-3.84-2.56-7.68-4.096-11.264-4.096-4.096 0-7.168 2.304-9.216 5.12-2.56 3.584-3.328 11.008-3.328 19.712v34.816c0 18.432.512 21.504 10.24 22.272l9.216.768c1.792 1.28 1.28 5.632-.512 6.4-12.032-.512-19.456-.768-28.416-.768-9.216 0-16.896.256-23.552.768-1.792-.768-2.304-5.12-.512-6.4l4.864-.768c9.472-1.536 9.728-3.84 9.728-22.272zm129.508 28.672h-23.04c-13.824 0-23.808.256-26.88.768-1.024-.512-1.536-1.536-1.536-2.56 5.12-6.144 16.896-24.32 24.576-37.632l27.136-46.08c4.096-7.168 2.304-7.68-2.304-7.68h-17.664c-7.68 0-13.824.768-17.664 3.84-4.352 3.328-6.912 9.216-9.216 14.848-1.28 1.536-5.12 1.024-5.888-1.024.512-6.656 4.864-23.808 8.448-29.952.768-.512 2.304-.512 3.072 0 .768 4.352 3.584 4.608 18.176 4.608h36.352c6.912 0 11.776 0 15.616-.768 1.024.512 1.536 1.28 1.28 2.56-5.376 7.424-11.52 16.896-18.944 29.184l-30.976 51.968c-5.376 9.216-4.864 10.24 4.864 10.24h8.704c9.984 0 23.04 0 30.208-7.68 2.816-3.072 5.376-8.448 8.192-14.848 1.792-1.024 4.864-.512 5.632 1.536-2.304 12.544-6.144 24.576-9.472 29.44-8.448-.512-16.896-.768-28.672-.768z" fill="#000"/></svg>