<svg width="304" height="304" viewBox="0 0 304 304" fill="none" xmlns="http://www.w3.org/2000/svg">
<g clip-path="url(#clip0_2167_12241)">
<rect width="304" height="304" rx="65.6094" fill="black"/>
<rect x="-18" y="-54" width="371" height="436" rx="26" fill="#FF9900"/>
<rect x="196.123" y="-45" width="300.96" height="455.629" rx="26" transform="rotate(28.0311 196.123 -45)" fill="#4C94FF"/>
<rect x="314.123" y="-20" width="300.96" height="455.629" rx="26" transform="rotate(28.0311 314.123 -20)" fill="#FF5EA1"/>
<path d="M70 39.9484C68.5607 39.9484 67.3346 39.4286 66.3218 38.3891C65.309 37.3496 64.8025 36.1236 64.8025 34.7109V27.0747C64.8025 25.662 65.309 24.4359 66.3218 23.3964C67.3346 22.357 68.5607 21.8372 70 21.8372C71.4126 21.8372 72.6254 22.357 73.6382 23.3964C74.6777 24.4359 75.1975 25.662 75.1975 27.0747V34.7109C75.1975 36.1236 74.6777 37.3496 73.6382 38.3891C72.6254 39.4286 71.4126 39.9484 70 39.9484ZM90.6699 48.6241C89.6571 47.6379 89.1373 46.4119 89.1107 44.9459C89.1107 43.48 89.6038 42.2539 90.5899 41.2677L95.9873 35.7904C96.9735 34.8042 98.1996 34.3111 99.6655 34.3111C101.131 34.2845 102.358 34.7642 103.344 35.7504C104.357 36.7366 104.863 37.976 104.863 39.4686C104.89 40.9345 104.41 42.1473 103.424 43.1068L98.0263 48.5841C97.0401 49.597 95.8141 50.1034 94.3481 50.1034C92.8822 50.1034 91.6561 49.6103 90.6699 48.6241ZM99.2257 69.1341C99.2257 67.7215 99.7321 66.4954 100.745 65.4559C101.784 64.4164 103.011 63.8967 104.423 63.8967H112.059C113.472 63.8967 114.698 64.4164 115.738 65.4559C116.777 66.4954 117.297 67.7215 117.297 69.1341C117.297 70.5467 116.777 71.7728 115.738 72.8123C114.698 73.8251 113.472 74.3316 112.059 74.3316H104.423C103.011 74.3316 101.784 73.8251 100.745 72.8123C99.7321 71.7728 99.2257 70.5467 99.2257 69.1341ZM90.5899 89.724C91.6028 88.7379 92.8288 88.2448 94.2681 88.2448C95.7341 88.2181 96.9602 88.6846 97.9463 89.6441L103.384 95.0814C104.397 96.0676 104.903 97.2937 104.903 98.7596C104.93 100.226 104.463 101.438 103.504 102.398C102.491 103.411 101.251 103.917 99.7854 103.917C98.3195 103.944 97.0934 103.477 96.1072 102.518L90.6699 97.0804C89.6571 96.0943 89.1373 94.8682 89.1107 93.4022C89.1107 91.9363 89.6038 90.7102 90.5899 89.724ZM70 98.3198C71.4126 98.3198 72.6254 98.8263 73.6382 99.8391C74.6777 100.879 75.1975 102.105 75.1975 103.517V111.154C75.1975 112.566 74.6777 113.792 73.6382 114.832C72.6254 115.871 71.4126 116.391 70 116.391C68.5607 116.391 67.3346 115.871 66.3218 114.832C65.309 113.792 64.8025 112.566 64.8025 111.154V103.517C64.8025 102.105 65.309 100.879 66.3218 99.8391C67.3346 98.8263 68.5607 98.3198 70 98.3198ZM49.4101 89.724C50.3696 90.7102 50.836 91.9363 50.8094 93.4022C50.8094 94.8682 50.303 96.0943 49.2901 97.0804L43.8528 102.518C42.8666 103.477 41.6405 103.944 40.1746 103.917C38.7086 103.89 37.4692 103.384 36.4564 102.398C35.4969 101.412 35.0171 100.186 35.0171 98.7196C35.0437 97.2537 35.5635 96.0276 36.5763 95.0414L41.9737 89.6441C42.9599 88.6846 44.1859 88.2181 45.6519 88.2448C47.1445 88.2448 48.3972 88.7379 49.4101 89.724ZM40.7743 69.1341C40.7743 70.5467 40.2545 71.7728 39.215 72.8123C38.1755 73.8251 36.9495 74.3316 35.5368 74.3316H27.9006C26.4879 74.3316 25.2619 73.8251 24.2224 72.8123C23.2095 71.7728 22.7031 70.5467 22.7031 69.1341C22.7031 67.7215 23.2095 66.4954 24.2224 65.4559C25.2619 64.4164 26.4879 63.8967 27.9006 63.8967H35.5368C36.9495 63.8967 38.1755 64.4164 39.215 65.4559C40.2545 66.4954 40.7743 67.7215 40.7743 69.1341ZM49.2901 48.6241C48.3039 49.6103 47.0779 50.1034 45.6119 50.1034C44.146 50.0767 42.9199 49.5703 41.9337 48.5841L36.5363 43.1068C35.5768 42.1473 35.0971 40.9345 35.0971 39.4686C35.1237 37.976 35.6301 36.7366 36.6163 35.7504C37.6025 34.7642 38.8286 34.2845 40.2945 34.3111C41.7871 34.3378 43.0132 34.8309 43.9727 35.7904L49.4101 41.2677C50.3696 42.2272 50.836 43.4533 50.8094 44.9459C50.8094 46.4119 50.303 47.6379 49.2901 48.6241ZM69.96 91.2433C66.9215 91.2433 64.0696 90.6702 61.4042 89.5241C58.7388 88.378 56.3933 86.7921 54.3676 84.7665C52.342 82.7408 50.7561 80.3953 49.61 77.7299C48.4639 75.0379 47.8908 72.1726 47.8908 69.1341C47.8908 66.0689 48.4639 63.2037 49.61 60.5383C50.7561 57.8729 52.342 55.5274 54.3676 53.5017C56.3933 51.4761 58.7388 49.8902 61.4042 48.7441C64.0696 47.598 66.9215 47.0249 69.96 47.0249C73.0252 47.0249 75.8905 47.598 78.5558 48.7441C81.2212 49.8902 83.5667 51.4761 85.5924 53.5017C87.6181 55.5274 89.204 57.8729 90.3501 60.5383C91.4962 63.2037 92.0692 66.0689 92.0692 69.1341C92.0692 72.1726 91.4962 75.0379 90.3501 77.7299C89.204 80.3953 87.6181 82.7408 85.5924 84.7665C83.5667 86.7921 81.2212 88.378 78.5558 89.5241C75.8905 90.6702 73.0252 91.2433 69.96 91.2433Z" fill="white"/>
<path d="M181.265 166.43C184.178 166.43 186.849 166.172 189.277 165.656C191.735 165.14 193.844 164.594 195.604 164.017C195.908 163.896 196.181 163.82 196.424 163.79C196.667 163.729 196.894 163.699 197.107 163.699C197.744 163.699 198.29 163.941 198.745 164.427C199.201 164.882 199.428 165.489 199.428 166.248C199.428 166.43 199.398 166.733 199.337 167.158C199.277 167.553 199.17 167.978 199.019 168.433C197.046 173.228 194.057 177.598 190.051 181.543C186.075 185.458 181.356 188.584 175.893 190.921C170.431 193.258 164.528 194.426 158.185 194.426C151.903 194.426 146 193.243 140.477 190.875C134.954 188.508 130.098 185.246 125.91 181.088C121.752 176.9 118.49 172.044 116.122 166.521C113.755 160.998 112.572 155.095 112.572 148.813C112.572 142.743 113.71 136.962 115.986 131.469C118.292 125.976 121.479 121.12 125.546 116.902C129.612 112.683 134.347 109.451 139.749 107.205C140.143 107.054 140.538 106.947 140.932 106.887C141.327 106.826 141.63 106.796 141.843 106.796C142.632 106.796 143.239 107.038 143.663 107.524C144.088 108.01 144.301 108.525 144.301 109.072C144.301 109.254 144.27 109.497 144.21 109.8C144.149 110.073 144.043 110.422 143.891 110.847C143.314 112.152 142.814 113.639 142.389 115.308C141.994 116.947 141.676 118.707 141.433 120.589C141.22 122.44 141.114 124.382 141.114 126.416C141.114 132.485 142.055 137.978 143.937 142.895C145.849 147.781 148.58 151.984 152.131 155.505C155.681 159.025 159.915 161.726 164.831 163.607C169.748 165.489 175.226 166.43 181.265 166.43Z" fill="white"/>
<path d="M211.079 227.834C211.079 226.716 211.518 225.612 212.394 224.524L256.794 170.51C257.701 169.422 258.668 168.756 259.696 168.515C260.724 168.273 261.646 168.379 262.463 168.832C263.309 169.255 263.899 169.951 264.231 170.918C264.564 171.886 264.473 173.05 263.959 174.41L249.628 212.324H277.066C278.184 212.324 279.092 212.672 279.787 213.367C280.513 214.032 280.875 214.894 280.875 215.952C280.875 217.071 280.437 218.175 279.56 219.263L235.161 273.277C234.254 274.365 233.286 275.03 232.258 275.272C231.231 275.544 230.293 275.454 229.447 275C228.63 274.577 228.056 273.866 227.723 272.869C227.391 271.901 227.481 270.737 227.995 269.376L242.327 231.463H214.889C213.8 231.463 212.893 231.13 212.168 230.465C211.442 229.769 211.079 228.893 211.079 227.834Z" fill="white"/>
<path d="M-45 -32H340V325H-45V-32Z" fill="url(#paint0_linear_2167_12241)"/>
<path d="M-45 140.5H340V497.5H-45V140.5Z" fill="url(#paint1_linear_2167_12241)"/>
</g>
<defs>
<linearGradient id="paint0_linear_2167_12241" x1="147.5" y1="-32" x2="147.5" y2="147" gradientUnits="userSpaceOnUse">
<stop stop-color="white"/>
<stop offset="1" stop-color="white" stop-opacity="0"/>
</linearGradient>
<linearGradient id="paint1_linear_2167_12241" x1="147.5" y1="-32" x2="147.5" y2="147" gradientUnits="userSpaceOnUse">
<stop stop-color="white"/>
<stop offset="1" stop-color="white" stop-opacity="0"/>
</linearGradient>
<clipPath id="clip0_2167_12241">
<rect width="304" height="304" rx="65.6094" fill="white"/>
</clipPath>
</defs>
</svg>
