<svg width="1329" height="95" viewBox="0 0 1329 95" fill="none" xmlns="http://www.w3.org/2000/svg">
<path d="M53.1875 94.875C42.6458 94.875 33.5833 93.75 26 91.5C18.4583 89.25 12.4792 85.9583 8.0625 81.625C3.6875 77.25 1.04167 71.8958 0.125 65.5625L0 64.6875H29.9375L30.0625 65.125C30.5208 66.9583 31.7292 68.5208 33.6875 69.8125C35.6458 71.1042 38.2917 72.0833 41.625 72.75C44.9583 73.4167 48.9375 73.75 53.5625 73.75C57.3125 73.75 60.5208 73.4375 63.1875 72.8125C65.8542 72.1458 67.9167 71.2292 69.375 70.0625C70.8333 68.8958 71.5625 67.5208 71.5625 65.9375V65.875C71.5625 63.875 70.6667 62.4167 68.875 61.5C67.125 60.5417 64 59.8125 59.5 59.3125L36.5 57.6875C25.0417 56.6458 16.4375 53.9375 10.6875 49.5625C4.97917 45.1458 2.125 39.0208 2.125 31.1875V31.0625C2.125 24.7708 4.04167 19.375 7.875 14.875C11.7083 10.375 17.2083 6.9375 24.375 4.5625C31.5417 2.14583 40.0833 0.9375 50 0.9375C59.9583 0.9375 68.5 2.04167 75.625 4.25C82.7917 6.45833 88.4375 9.66667 92.5625 13.875C96.6875 18.0833 99.2083 23.1875 100.125 29.1875L100.312 30.4375H70.375L70.25 29.9375C69.8333 28.1875 68.8125 26.75 67.1875 25.625C65.5625 24.4583 63.3333 23.5833 60.5 23C57.7083 22.375 54.3542 22.0625 50.4375 22.0625C46.6042 22.0625 43.3958 22.3542 40.8125 22.9375C38.2708 23.4792 36.3542 24.2917 35.0625 25.375C33.8125 26.4167 33.1875 27.6667 33.1875 29.125V29.1875C33.1875 31.1042 34.1458 32.5625 36.0625 33.5625C37.9792 34.5208 41.1875 35.2292 45.6875 35.6875L69.1875 37.375C76.6875 38.0833 82.9167 39.5 87.875 41.625C92.8333 43.7083 96.5417 46.5625 99 50.1875C101.458 53.8125 102.688 58.25 102.688 63.5V63.5625C102.688 70.0625 100.729 75.6667 96.8125 80.375C92.8958 85.0417 87.2292 88.625 79.8125 91.125C72.4375 93.625 63.5625 94.875 53.1875 94.875ZM164.25 94.625C154.042 94.625 145.104 93.0417 137.438 89.875C129.771 86.6667 123.792 81.9375 119.5 75.6875C115.25 69.4375 113.125 61.6667 113.125 52.375V2.8125H144.5V51.75C144.5 55.9583 145.229 59.5 146.688 62.375C148.188 65.2083 150.396 67.3542 153.312 68.8125C156.271 70.2292 159.938 70.9375 164.312 70.9375C168.646 70.9375 172.271 70.2292 175.188 68.8125C178.146 67.3542 180.354 65.2083 181.812 62.375C183.312 59.5 184.062 55.9583 184.062 51.75V2.8125H215.438V52.375C215.438 61.625 213.292 69.3958 209 75.6875C204.75 81.9375 198.792 86.6667 191.125 89.875C183.458 93.0417 174.5 94.625 164.25 94.625ZM228.625 93V2.8125H255.25L315 64.4375L289.125 51.1875H301.938V2.8125H332.375V93H305.875L246.125 30.5625L271.875 43.9375H259.062V93H228.625ZM426.938 94.875C416.396 94.875 407.333 93.75 399.75 91.5C392.208 89.25 386.229 85.9583 381.812 81.625C377.438 77.25 374.792 71.8958 373.875 65.5625L373.75 64.6875H403.688L403.812 65.125C404.271 66.9583 405.479 68.5208 407.438 69.8125C409.396 71.1042 412.042 72.0833 415.375 72.75C418.708 73.4167 422.688 73.75 427.312 73.75C431.062 73.75 434.271 73.4375 436.938 72.8125C439.604 72.1458 441.667 71.2292 443.125 70.0625C444.583 68.8958 445.312 67.5208 445.312 65.9375V65.875C445.312 63.875 444.417 62.4167 442.625 61.5C440.875 60.5417 437.75 59.8125 433.25 59.3125L410.25 57.6875C398.792 56.6458 390.188 53.9375 384.438 49.5625C378.729 45.1458 375.875 39.0208 375.875 31.1875V31.0625C375.875 24.7708 377.792 19.375 381.625 14.875C385.458 10.375 390.958 6.9375 398.125 4.5625C405.292 2.14583 413.833 0.9375 423.75 0.9375C433.708 0.9375 442.25 2.04167 449.375 4.25C456.542 6.45833 462.188 9.66667 466.312 13.875C470.438 18.0833 472.958 23.1875 473.875 29.1875L474.062 30.4375H444.125L444 29.9375C443.583 28.1875 442.562 26.75 440.938 25.625C439.312 24.4583 437.083 23.5833 434.25 23C431.458 22.375 428.104 22.0625 424.188 22.0625C420.354 22.0625 417.146 22.3542 414.562 22.9375C412.021 23.4792 410.104 24.2917 408.812 25.375C407.562 26.4167 406.938 27.6667 406.938 29.125V29.1875C406.938 31.1042 407.896 32.5625 409.812 33.5625C411.729 34.5208 414.938 35.2292 419.438 35.6875L442.938 37.375C450.438 38.0833 456.667 39.5 461.625 41.625C466.583 43.7083 470.292 46.5625 472.75 50.1875C475.208 53.8125 476.438 58.25 476.438 63.5V63.5625C476.438 70.0625 474.479 75.6667 470.562 80.375C466.646 85.0417 460.979 88.625 453.562 91.125C446.188 93.625 437.312 94.875 426.938 94.875ZM486.875 93V2.8125H518.25V69.875H567.188V93H486.875ZM577.5 93V2.8125H663.625V24.75H608.875V37.8125H659.75V57.5H608.875V71.0625H663.625V93H577.5ZM676.375 93V2.8125H762.5V24.75H707.75V37.8125H758.625V57.5H707.75V71.0625H762.5V93H676.375ZM790.938 69.1875V47.75H827.438C831.729 47.75 835.021 46.7917 837.312 44.875C839.604 42.9167 840.75 40.0833 840.75 36.375V36.25C840.75 32.5417 839.604 29.7292 837.312 27.8125C835.021 25.8958 831.729 24.9375 827.438 24.9375H790.938V2.8125H832.875C841.083 2.8125 848.125 4.20833 854 7C859.917 9.75 864.458 13.6042 867.625 18.5625C870.792 23.5208 872.375 29.3125 872.375 35.9375V36.0625C872.375 42.5208 870.792 48.25 867.625 53.25C864.458 58.2083 859.917 62.1042 854 64.9375C848.125 67.7708 841.083 69.1875 832.875 69.1875H790.938ZM775.25 93V2.8125H806.5V93H775.25ZM963.688 94.875C953.146 94.875 944.083 93.75 936.5 91.5C928.958 89.25 922.979 85.9583 918.562 81.625C914.188 77.25 911.542 71.8958 910.625 65.5625L910.5 64.6875H940.438L940.562 65.125C941.021 66.9583 942.229 68.5208 944.188 69.8125C946.146 71.1042 948.792 72.0833 952.125 72.75C955.458 73.4167 959.438 73.75 964.062 73.75C967.812 73.75 971.021 73.4375 973.688 72.8125C976.354 72.1458 978.417 71.2292 979.875 70.0625C981.333 68.8958 982.062 67.5208 982.062 65.9375V65.875C982.062 63.875 981.167 62.4167 979.375 61.5C977.625 60.5417 974.5 59.8125 970 59.3125L947 57.6875C935.542 56.6458 926.938 53.9375 921.188 49.5625C915.479 45.1458 912.625 39.0208 912.625 31.1875V31.0625C912.625 24.7708 914.542 19.375 918.375 14.875C922.208 10.375 927.708 6.9375 934.875 4.5625C942.042 2.14583 950.583 0.9375 960.5 0.9375C970.458 0.9375 979 2.04167 986.125 4.25C993.292 6.45833 998.938 9.66667 1003.06 13.875C1007.19 18.0833 1009.71 23.1875 1010.62 29.1875L1010.81 30.4375H980.875L980.75 29.9375C980.333 28.1875 979.312 26.75 977.688 25.625C976.062 24.4583 973.833 23.5833 971 23C968.208 22.375 964.854 22.0625 960.938 22.0625C957.104 22.0625 953.896 22.3542 951.312 22.9375C948.771 23.4792 946.854 24.2917 945.562 25.375C944.312 26.4167 943.688 27.6667 943.688 29.125V29.1875C943.688 31.1042 944.646 32.5625 946.562 33.5625C948.479 34.5208 951.688 35.2292 956.188 35.6875L979.688 37.375C987.188 38.0833 993.417 39.5 998.375 41.625C1003.33 43.7083 1007.04 46.5625 1009.5 50.1875C1011.96 53.8125 1013.19 58.25 1013.19 63.5V63.5625C1013.19 70.0625 1011.23 75.6667 1007.31 80.375C1003.4 85.0417 997.729 88.625 990.312 91.125C982.938 93.625 974.062 94.875 963.688 94.875ZM1023.62 93V2.8125H1055V69.875H1103.94V93H1023.62ZM1109.5 93L1148.5 2.8125H1179.25V25.75H1168.75L1142.56 93H1109.5ZM1132.56 75.625L1140.62 55.6875H1196.31L1204.31 75.625H1132.56ZM1195.44 93L1169.25 25.75V2.8125H1189.44L1228.44 93H1195.44ZM1256.25 93V63.875L1214.88 2.8125H1249L1271.69 39.0625H1272.12L1294.81 2.8125H1328.88L1287.56 63.875V93H1256.25Z" fill="black"/>
</svg>
