<svg width="271" height="21" viewBox="0 0 271 21" fill="none" xmlns="http://www.w3.org/2000/svg">
<path d="M1.5 13.26V3.72C1.5 2.54 1.48 2.42 0.88 2.06L0.68 1.94C0.58 1.88 0.58 1.6 0.68 1.54C1.14 1.36 2.1 1.1 2.86 0.699999C2.94 0.699999 3.02 0.739999 3.06 0.819999C3.02 1.52 2.98 2.42 2.98 3.3V7.08C2.98 7.42 3.06 7.5 3.18 7.5C3.7 7.2 4.5 6.84 5.48 6.84C7.76 6.84 9.3 8.56 9.3 10.76C9.3 13.42 7.38 15.28 4.7 15.28C3.96 15.28 3.4 15.14 3 15.02C2.58 14.88 2.32 14.76 2.16 14.76C2 14.76 1.84 14.92 1.74 15.06C1.72 15.08 1.7 15.08 1.66 15.08C1.58 15.08 1.5 15.04 1.46 14.96C1.48 14.68 1.5 14.3 1.5 13.26ZM2.98 9.16V12.28C2.98 12.98 3.14 13.6 3.48 14.02C3.82 14.44 4.36 14.68 5 14.68C6.88 14.68 7.62 13.08 7.62 11.36C7.62 9.3 6.56 7.7 4.58 7.7C3.98 7.7 3.5 7.84 3.22 8.02C3.02 8.16 2.98 8.38 2.98 9.16ZM17.3 9.88H13.6C13.08 9.88 13.06 9.92 13.06 10.42C13.06 12.44 14.24 14.16 16.38 14.16C17.04 14.16 17.6 13.96 18.22 13.18C18.42 13.12 18.56 13.24 18.58 13.42C17.92 14.78 16.48 15.28 15.44 15.28C14.14 15.28 13.12 14.72 12.54 13.96C11.94 13.18 11.7 12.24 11.7 11.36C11.7 8.9 13.32 6.84 15.72 6.84C17.44 6.84 18.56 8.02 18.56 9.22C18.56 9.5 18.52 9.66 18.48 9.74C18.42 9.86 18.14 9.88 17.3 9.88ZM13.42 9.28H14.84C16.32 9.28 16.76 9.2 16.92 9.08C16.98 9.04 17.04 8.96 17.04 8.7C17.04 8.14 16.66 7.44 15.5 7.44C14.32 7.44 13.3 8.52 13.28 9.18C13.28 9.22 13.28 9.28 13.42 9.28ZM23.6497 6.84C24.4897 6.84 25.2297 7.04 25.4097 7.2C25.5897 7.64 25.7297 8.28 25.7297 8.82C25.6497 8.96 25.3497 9 25.2497 8.88C24.9097 8 24.3097 7.42 23.4897 7.42C22.7097 7.42 22.2097 7.92 22.2097 8.64C22.2097 9.46 23.0497 9.9 23.7497 10.3C24.8097 10.9 25.7897 11.58 25.7897 13C25.7897 14.52 24.3897 15.28 22.9097 15.28C21.9697 15.28 21.2697 15.08 20.7697 14.68C20.6097 14.3 20.4897 13.32 20.5297 12.66C20.6297 12.54 20.8897 12.52 20.9897 12.64C21.3297 13.74 21.9697 14.7 23.1097 14.7C23.8297 14.7 24.4497 14.28 24.4497 13.42C24.4497 12.5 23.6497 12 22.9097 11.58C21.7497 10.92 20.9297 10.22 20.9297 9.12C20.9297 7.66 22.1297 6.84 23.6497 6.84ZM29.0945 17.86V9.26C29.0945 8.48 29.0945 8.38 28.5545 8.02L28.3745 7.9C28.2945 7.82 28.2945 7.6 28.3945 7.54C28.9145 7.32 29.8545 6.84 30.3745 6.46C30.4945 6.46 30.5745 6.5 30.6145 6.6C30.5745 6.96 30.5345 7.26 30.5345 7.52C30.5345 7.66 30.5745 7.78 30.7145 7.78C30.9745 7.66 32.2345 6.84 33.5145 6.84C35.5345 6.84 36.8345 8.48 36.8345 10.5C36.8345 13.28 34.7945 15.28 31.9545 15.28C31.5945 15.28 31.0345 15.24 30.8545 15.2C30.6745 15.24 30.5745 15.34 30.5745 15.76V17.86C30.5745 19.28 30.6145 19.46 31.3345 19.56L32.1145 19.66C32.2545 19.76 32.2145 20.1 32.0745 20.16C31.1145 20.12 30.5345 20.1 29.8345 20.1C29.1145 20.1 28.5145 20.12 27.9545 20.16C27.8145 20.1 27.7745 19.76 27.9145 19.66L28.3345 19.6C29.0745 19.5 29.0945 19.3 29.0945 17.86ZM30.5745 9.54V12.98C30.5745 13.62 30.7745 13.86 31.1745 14.18C31.5745 14.48 32.1945 14.62 32.6145 14.62C34.2545 14.62 35.2145 13.1 35.2145 11.02C35.2145 9.42 34.3145 7.8 32.5145 7.8C31.6545 7.8 31.0345 8.12 30.8145 8.36C30.6345 8.58 30.5745 8.88 30.5745 9.54ZM43.4913 6.84C45.7313 6.84 47.5513 8.52 47.5513 10.98C47.5513 13.48 45.8313 15.28 43.3313 15.28C41.0312 15.28 39.2313 13.66 39.2313 11.16C39.2313 8.64 41.1313 6.84 43.4913 6.84ZM45.8313 11.3C45.8313 9.6 45.1513 7.44 43.2513 7.44C41.9313 7.44 40.9513 8.7 40.9513 10.9C40.9513 12.72 41.7713 14.68 43.5312 14.68C45.2913 14.68 45.8313 12.84 45.8313 11.3ZM51.0178 12.76V3.72C51.0178 2.54 50.9978 2.42 50.3978 2.06L50.1978 1.94C50.0978 1.88 50.0978 1.6 50.1978 1.54C50.6978 1.38 51.6378 1.08 52.3578 0.699999C52.4378 0.699999 52.5178 0.739999 52.5578 0.819999C52.5378 1.42 52.4978 2.42 52.4978 3.3V10.16C52.4978 10.42 52.5178 10.46 52.8578 10.46C53.2978 10.46 53.6778 10.24 54.2178 9.68L55.0378 8.8C55.5978 8.2 55.7378 7.98 55.7378 7.88C55.7378 7.78 55.6378 7.72 55.2978 7.68L54.8178 7.62C54.6378 7.56 54.6378 7.18 54.8178 7.12H55.2778C56.1578 7.12 57.3378 7.08 58.4578 6.96C58.5978 7.02 58.6178 7.36 58.4978 7.46L57.8578 7.58C57.4578 7.66 57.1178 7.86 56.5978 8.28C55.8178 8.9 55.1378 9.62 54.7778 9.96C54.5378 10.18 54.5178 10.28 54.6378 10.44C54.9778 10.9 55.2978 11.28 55.9778 12.04C56.7578 12.92 57.4578 13.7 57.8578 14.08C58.1378 14.34 58.5378 14.46 58.8978 14.52L59.1778 14.56C59.3178 14.66 59.2978 15 59.1378 15.06C58.5578 15.02 57.8778 15 57.2378 15C56.4378 15 55.7378 15.02 55.1578 15.06C54.9978 14.98 54.9778 14.64 55.1178 14.56L55.4778 14.5C55.7778 14.46 55.9778 14.42 55.9778 14.3C55.9778 14.18 55.8978 14.04 55.6378 13.74L53.4978 11.26C53.3178 11.06 53.0978 10.98 52.8778 10.98C52.5178 10.98 52.4978 11.04 52.4978 11.66V12.76C52.4978 14.2 52.5378 14.4 53.2578 14.5L53.7378 14.56C53.8778 14.66 53.8378 15 53.6978 15.06C53.0378 15.02 52.4578 15 51.7578 15C51.0378 15 50.4378 15.02 49.8378 15.06C49.6978 15 49.6578 14.66 49.8178 14.56L50.2578 14.5C50.9978 14.4 51.0178 14.2 51.0178 12.76ZM66.2063 9.88H62.5063C61.9863 9.88 61.9663 9.92 61.9663 10.42C61.9663 12.44 63.1463 14.16 65.2863 14.16C65.9463 14.16 66.5063 13.96 67.1263 13.18C67.3263 13.12 67.4663 13.24 67.4863 13.42C66.8263 14.78 65.3863 15.28 64.3463 15.28C63.0463 15.28 62.0263 14.72 61.4463 13.96C60.8463 13.18 60.6063 12.24 60.6063 11.36C60.6063 8.9 62.2263 6.84 64.6263 6.84C66.3463 6.84 67.4663 8.02 67.4663 9.22C67.4663 9.5 67.4263 9.66 67.3863 9.74C67.3263 9.86 67.0463 9.88 66.2063 9.88ZM62.3263 9.28H63.7463C65.2263 9.28 65.6663 9.2 65.8263 9.08C65.8863 9.04 65.9463 8.96 65.9463 8.7C65.9463 8.14 65.5663 7.44 64.4063 7.44C63.2263 7.44 62.2063 8.52 62.1863 9.18C62.1863 9.22 62.1863 9.28 62.3263 9.28ZM77.1959 11.72L79.5759 10.86C79.8759 10.76 79.9159 10.58 79.9159 10.28L79.9359 9.36C79.9559 8.62 79.7159 7.62 78.4759 7.62C77.9159 7.62 77.2359 7.9 77.1959 8.52C77.1759 8.84 77.1559 9.08 76.9959 9.2C76.6959 9.44 76.1559 9.58 75.8559 9.58C75.6759 9.58 75.5759 9.48 75.5759 9.3C75.5759 8.26 77.8359 6.84 79.2959 6.84C80.7359 6.84 81.4359 7.68 81.3759 9.18L81.2559 12.66C81.2159 13.58 81.3959 14.4 82.1759 14.4C82.3759 14.4 82.5559 14.34 82.6759 14.28C82.7759 14.22 82.8759 14.14 82.9359 14.14C83.0159 14.14 83.0759 14.26 83.0759 14.4C83.0759 14.5 82.3759 15.28 81.3959 15.28C80.9159 15.28 80.4359 15.1 80.0959 14.66C80.0159 14.54 79.8959 14.38 79.7759 14.38C79.6359 14.38 79.3959 14.56 78.9959 14.78C78.5559 15.02 78.1159 15.28 77.5559 15.28C76.9759 15.28 76.4959 15.12 76.1559 14.82C75.7759 14.48 75.5359 13.98 75.5359 13.42C75.5359 12.64 75.9159 12.18 77.1959 11.72ZM77.0759 13.18C77.0759 13.52 77.3159 14.38 78.3359 14.38C78.7359 14.38 79.3559 14.08 79.5559 13.88C79.7959 13.64 79.7959 13.36 79.8159 12.94L79.8559 11.76C79.8559 11.54 79.7759 11.5 79.6559 11.5C79.5359 11.5 79.1959 11.58 78.8359 11.7C77.6559 12.1 77.0759 12.4 77.0759 13.18ZM85.6219 17.86V9.26C85.6219 8.48 85.6219 8.38 85.0819 8.02L84.9019 7.9C84.8219 7.82 84.8219 7.6 84.9219 7.54C85.4419 7.32 86.3819 6.84 86.9019 6.46C87.0219 6.46 87.1019 6.5 87.1419 6.6C87.1019 6.96 87.0619 7.26 87.0619 7.52C87.0619 7.66 87.1019 7.78 87.2419 7.78C87.5019 7.66 88.7619 6.84 90.0419 6.84C92.0619 6.84 93.3619 8.48 93.3619 10.5C93.3619 13.28 91.3219 15.28 88.4819 15.28C88.1219 15.28 87.5619 15.24 87.3819 15.2C87.2019 15.24 87.1019 15.34 87.1019 15.76V17.86C87.1019 19.28 87.1419 19.46 87.8619 19.56L88.6419 19.66C88.7819 19.76 88.7419 20.1 88.6019 20.16C87.6419 20.12 87.0619 20.1 86.3619 20.1C85.6419 20.1 85.0419 20.12 84.4819 20.16C84.3419 20.1 84.3019 19.76 84.4419 19.66L84.8619 19.6C85.6019 19.5 85.6219 19.3 85.6219 17.86ZM87.1019 9.54V12.98C87.1019 13.62 87.3019 13.86 87.7019 14.18C88.1019 14.48 88.7219 14.62 89.1419 14.62C90.7819 14.62 91.7419 13.1 91.7419 11.02C91.7419 9.42 90.8419 7.8 89.0419 7.8C88.1819 7.8 87.5619 8.12 87.3419 8.36C87.1619 8.58 87.1019 8.88 87.1019 9.54ZM96.7586 17.86V9.26C96.7586 8.48 96.7586 8.38 96.2186 8.02L96.0386 7.9C95.9586 7.82 95.9586 7.6 96.0586 7.54C96.5786 7.32 97.5186 6.84 98.0386 6.46C98.1586 6.46 98.2386 6.5 98.2786 6.6C98.2386 6.96 98.1986 7.26 98.1986 7.52C98.1986 7.66 98.2386 7.78 98.3786 7.78C98.6386 7.66 99.8986 6.84 101.179 6.84C103.199 6.84 104.499 8.48 104.499 10.5C104.499 13.28 102.459 15.28 99.6186 15.28C99.2586 15.28 98.6986 15.24 98.5186 15.2C98.3386 15.24 98.2386 15.34 98.2386 15.76V17.86C98.2386 19.28 98.2786 19.46 98.9986 19.56L99.7786 19.66C99.9186 19.76 99.8786 20.1 99.7386 20.16C98.7786 20.12 98.1986 20.1 97.4986 20.1C96.7786 20.1 96.1786 20.12 95.6186 20.16C95.4786 20.1 95.4386 19.76 95.5786 19.66L95.9986 19.6C96.7386 19.5 96.7586 19.3 96.7586 17.86ZM98.2386 9.54V12.98C98.2386 13.62 98.4386 13.86 98.8386 14.18C99.2386 14.48 99.8586 14.62 100.279 14.62C101.919 14.62 102.879 13.1 102.879 11.02C102.879 9.42 101.979 7.8 100.179 7.8C99.3186 7.8 98.6986 8.12 98.4786 8.36C98.2986 8.58 98.2386 8.88 98.2386 9.54ZM109.915 6.84C110.755 6.84 111.495 7.04 111.675 7.2C111.855 7.64 111.995 8.28 111.995 8.82C111.915 8.96 111.615 9 111.515 8.88C111.175 8 110.575 7.42 109.755 7.42C108.975 7.42 108.475 7.92 108.475 8.64C108.475 9.46 109.315 9.9 110.015 10.3C111.075 10.9 112.055 11.58 112.055 13C112.055 14.52 110.655 15.28 109.175 15.28C108.235 15.28 107.535 15.08 107.035 14.68C106.875 14.3 106.755 13.32 106.795 12.66C106.895 12.54 107.155 12.52 107.255 12.64C107.595 13.74 108.235 14.7 109.375 14.7C110.095 14.7 110.715 14.28 110.715 13.42C110.715 12.5 109.915 12 109.175 11.58C108.015 10.92 107.195 10.22 107.195 9.12C107.195 7.66 108.395 6.84 109.915 6.84ZM125.52 7.96H123.38C123.04 7.96 123.04 8 123.04 8.54V12.76C123.04 14.2 123.08 14.44 123.8 14.5L124.52 14.56C124.66 14.66 124.62 15 124.48 15.06C123.58 15.02 123 15 122.3 15C121.58 15 120.98 15.02 120.38 15.06C120.24 15 120.2 14.66 120.34 14.56L120.8 14.5C121.54 14.4 121.56 14.2 121.56 12.76V8.54C121.56 8 121.56 7.96 121.16 7.96H120.46C120.34 7.88 120.32 7.7 120.4 7.58L121.26 7.16C121.42 7.08 121.56 6.96 121.56 6.76C121.56 5.6 121.7 4.36 122.18 3.24C122.68 2.1 123.8 0.699999 125.78 0.699999C126.84 0.699999 127.74 1.18 127.74 1.9C127.74 2.3 127.36 2.62 126.98 2.62C126.76 2.62 126.64 2.54 126.5 2.38C126.12 1.94 125.56 1.5 124.9 1.5C124.28 1.5 123.78 1.88 123.48 2.6C123.12 3.52 123.04 4.98 123.04 5.98V6.56C123.04 7.1 123.04 7.12 123.38 7.12H125.66C125.88 7.32 125.74 7.88 125.52 7.96ZM131.421 6.84C133.661 6.84 135.481 8.52 135.481 10.98C135.481 13.48 133.761 15.28 131.261 15.28C128.961 15.28 127.161 13.66 127.161 11.16C127.161 8.64 129.061 6.84 131.421 6.84ZM133.761 11.3C133.761 9.6 133.081 7.44 131.181 7.44C129.861 7.44 128.881 8.7 128.881 10.9C128.881 12.72 129.701 14.68 131.461 14.68C133.221 14.68 133.761 12.84 133.761 11.3ZM139.148 12.76V9.26C139.148 8.48 139.148 8.38 138.608 8.02L138.428 7.9C138.348 7.82 138.348 7.6 138.448 7.54C138.908 7.38 139.968 6.86 140.468 6.56C140.568 6.58 140.628 6.62 140.628 6.7V7.86C140.628 7.96 140.648 8.02 140.688 8.04C141.388 7.46 142.148 6.84 142.888 6.84C143.388 6.84 143.788 7.16 143.788 7.64C143.788 8.3 143.248 8.56 142.928 8.56C142.728 8.56 142.628 8.5 142.488 8.42C142.188 8.22 141.888 8.1 141.608 8.1C141.288 8.1 141.048 8.28 140.888 8.5C140.688 8.78 140.628 9.36 140.628 10.04V12.76C140.628 14.2 140.668 14.44 141.428 14.5L142.148 14.56C142.288 14.66 142.248 15 142.108 15.06C141.168 15.02 140.588 15 139.888 15C139.168 15 138.568 15.02 138.048 15.06C137.908 15 137.868 14.66 138.008 14.56L138.388 14.5C139.128 14.38 139.148 14.2 139.148 12.76ZM159.848 13.08L158.968 10.36C158.828 9.92 158.748 9.86 158.148 9.86H155.128C154.628 9.86 154.508 9.92 154.368 10.34L153.668 12.44C153.368 13.34 153.228 13.88 153.228 14.1C153.228 14.34 153.328 14.46 153.808 14.5L154.468 14.56C154.608 14.66 154.608 14.98 154.428 15.06C153.908 15.02 153.288 15.02 152.348 15C151.688 15 150.968 15.04 150.428 15.06C150.308 14.98 150.268 14.66 150.388 14.56L151.048 14.5C151.528 14.46 151.968 14.24 152.248 13.52C152.608 12.6 153.168 11.3 154.008 9.06L156.048 3.66C156.328 2.94 156.448 2.56 156.388 2.24C156.868 2.1 157.208 1.74 157.428 1.48C157.548 1.48 157.688 1.52 157.728 1.66C157.988 2.54 158.308 3.46 158.608 4.34L161.348 12.38C161.928 14.1 162.188 14.4 163.048 14.5L163.588 14.56C163.728 14.66 163.688 14.98 163.588 15.06C162.768 15.02 162.068 15 161.168 15C160.208 15 159.448 15.04 158.868 15.06C158.708 14.98 158.688 14.66 158.828 14.56L159.408 14.5C159.828 14.46 160.108 14.34 160.108 14.14C160.108 13.92 160.008 13.56 159.848 13.08ZM156.268 5.1L155.008 8.58C154.848 9.04 154.868 9.06 155.428 9.06H157.888C158.468 9.06 158.508 8.98 158.328 8.44L157.248 5.18C157.088 4.7 156.908 4.16 156.788 3.92H156.748C156.688 4.02 156.488 4.5 156.268 5.1ZM165.755 17.86V9.26C165.755 8.48 165.755 8.38 165.215 8.02L165.035 7.9C164.955 7.82 164.955 7.6 165.055 7.54C165.575 7.32 166.515 6.84 167.035 6.46C167.155 6.46 167.235 6.5 167.275 6.6C167.235 6.96 167.195 7.26 167.195 7.52C167.195 7.66 167.235 7.78 167.375 7.78C167.635 7.66 168.895 6.84 170.175 6.84C172.195 6.84 173.495 8.48 173.495 10.5C173.495 13.28 171.455 15.28 168.615 15.28C168.255 15.28 167.695 15.24 167.515 15.2C167.335 15.24 167.235 15.34 167.235 15.76V17.86C167.235 19.28 167.275 19.46 167.995 19.56L168.775 19.66C168.915 19.76 168.875 20.1 168.735 20.16C167.775 20.12 167.195 20.1 166.495 20.1C165.775 20.1 165.175 20.12 164.615 20.16C164.475 20.1 164.435 19.76 164.575 19.66L164.995 19.6C165.735 19.5 165.755 19.3 165.755 17.86ZM167.235 9.54V12.98C167.235 13.62 167.435 13.86 167.835 14.18C168.235 14.48 168.855 14.62 169.275 14.62C170.915 14.62 171.875 13.1 171.875 11.02C171.875 9.42 170.975 7.8 169.175 7.8C168.315 7.8 167.695 8.12 167.475 8.36C167.295 8.58 167.235 8.88 167.235 9.54ZM176.891 17.86V9.26C176.891 8.48 176.891 8.38 176.351 8.02L176.171 7.9C176.091 7.82 176.091 7.6 176.191 7.54C176.711 7.32 177.651 6.84 178.171 6.46C178.291 6.46 178.371 6.5 178.411 6.6C178.371 6.96 178.331 7.26 178.331 7.52C178.331 7.66 178.371 7.78 178.511 7.78C178.771 7.66 180.031 6.84 181.311 6.84C183.331 6.84 184.631 8.48 184.631 10.5C184.631 13.28 182.591 15.28 179.751 15.28C179.391 15.28 178.831 15.24 178.651 15.2C178.471 15.24 178.371 15.34 178.371 15.76V17.86C178.371 19.28 178.411 19.46 179.131 19.56L179.911 19.66C180.051 19.76 180.011 20.1 179.871 20.16C178.911 20.12 178.331 20.1 177.631 20.1C176.911 20.1 176.311 20.12 175.751 20.16C175.611 20.1 175.571 19.76 175.711 19.66L176.131 19.6C176.871 19.5 176.891 19.3 176.891 17.86ZM178.371 9.54V12.98C178.371 13.62 178.571 13.86 178.971 14.18C179.371 14.48 179.991 14.62 180.411 14.62C182.051 14.62 183.011 13.1 183.011 11.02C183.011 9.42 182.111 7.8 180.311 7.8C179.451 7.8 178.831 8.12 178.611 8.36C178.431 8.58 178.371 8.88 178.371 9.54ZM189.568 3.3V12.76C189.568 14.2 189.608 14.4 190.328 14.5L190.808 14.56C190.948 14.66 190.908 15 190.768 15.06C190.108 15.02 189.528 15 188.828 15C188.108 15 187.508 15.02 186.908 15.06C186.768 15 186.728 14.66 186.868 14.56L187.328 14.5C188.068 14.4 188.088 14.2 188.088 12.76V3.72C188.088 2.54 188.068 2.42 187.468 2.06L187.268 1.94C187.168 1.88 187.168 1.6 187.268 1.54C187.768 1.38 188.708 1.08 189.428 0.699999C189.508 0.699999 189.588 0.739999 189.628 0.819999C189.608 1.42 189.568 2.42 189.568 3.3ZM198.57 9.88H194.87C194.35 9.88 194.33 9.92 194.33 10.42C194.33 12.44 195.51 14.16 197.65 14.16C198.31 14.16 198.87 13.96 199.49 13.18C199.69 13.12 199.83 13.24 199.85 13.42C199.19 14.78 197.75 15.28 196.71 15.28C195.41 15.28 194.39 14.72 193.81 13.96C193.21 13.18 192.97 12.24 192.97 11.36C192.97 8.9 194.59 6.84 196.99 6.84C198.71 6.84 199.83 8.02 199.83 9.22C199.83 9.5 199.79 9.66 199.75 9.74C199.69 9.86 199.41 9.88 198.57 9.88ZM194.69 9.28H196.11C197.59 9.28 198.03 9.2 198.19 9.08C198.25 9.04 198.31 8.96 198.31 8.7C198.31 8.14 197.93 7.44 196.77 7.44C195.59 7.44 194.57 8.52 194.55 9.18C194.55 9.22 194.55 9.28 194.69 9.28ZM210.919 6.84C211.759 6.84 212.499 7.04 212.679 7.2C212.859 7.64 212.999 8.28 212.999 8.82C212.919 8.96 212.619 9 212.519 8.88C212.179 8 211.579 7.42 210.759 7.42C209.979 7.42 209.479 7.92 209.479 8.64C209.479 9.46 210.319 9.9 211.019 10.3C212.079 10.9 213.059 11.58 213.059 13C213.059 14.52 211.659 15.28 210.179 15.28C209.239 15.28 208.539 15.08 208.039 14.68C207.879 14.3 207.759 13.32 207.799 12.66C207.899 12.54 208.159 12.52 208.259 12.64C208.599 13.74 209.239 14.7 210.379 14.7C211.099 14.7 211.719 14.28 211.719 13.42C211.719 12.5 210.919 12 210.179 11.58C209.019 10.92 208.199 10.22 208.199 9.12C208.199 7.66 209.399 6.84 210.919 6.84ZM216.024 19.98C215.444 19.98 215.144 19.62 215.144 19.12C215.144 18.58 215.504 18.32 215.944 18.32H216.324C216.644 18.32 216.844 18.18 216.984 17.96C217.564 17.06 217.964 16.22 218.144 15.74C218.204 15.58 218.344 15.16 218.344 14.88C218.344 14.48 218.264 14.24 218.004 13.5L216.444 9.22C216.104 8.28 215.964 7.8 215.264 7.66L214.764 7.56C214.644 7.46 214.664 7.12 214.824 7.06C215.464 7.1 216.064 7.12 216.724 7.12C217.264 7.12 217.824 7.1 218.464 7.06C218.624 7.12 218.644 7.46 218.504 7.56L218.004 7.66C217.724 7.72 217.564 7.78 217.564 7.92C217.564 8.16 218.024 9.46 218.144 9.8L218.784 11.64C218.904 11.96 219.284 13.02 219.364 13.06C219.424 13.02 219.744 12.4 220.104 11.58L220.784 10C221.224 8.96 221.484 8.22 221.484 8C221.484 7.86 221.364 7.72 221.004 7.66L220.384 7.56C220.244 7.46 220.264 7.12 220.424 7.06C221.064 7.1 221.664 7.12 222.184 7.12C222.684 7.12 223.144 7.1 223.704 7.06C223.864 7.14 223.884 7.44 223.744 7.56L223.404 7.62C222.744 7.74 222.384 8.32 221.704 9.74L220.584 12.04C219.924 13.38 218.284 16.86 217.304 19.04C216.964 19.8 216.484 19.98 216.024 19.98ZM228.154 6.84C228.994 6.84 229.734 7.04 229.914 7.2C230.094 7.64 230.234 8.28 230.234 8.82C230.154 8.96 229.854 9 229.754 8.88C229.414 8 228.814 7.42 227.994 7.42C227.214 7.42 226.714 7.92 226.714 8.64C226.714 9.46 227.554 9.9 228.254 10.3C229.314 10.9 230.294 11.58 230.294 13C230.294 14.52 228.894 15.28 227.414 15.28C226.474 15.28 225.774 15.08 225.274 14.68C225.114 14.3 224.994 13.32 225.034 12.66C225.134 12.54 225.394 12.52 225.494 12.64C225.834 13.74 226.474 14.7 227.614 14.7C228.334 14.7 228.954 14.28 228.954 13.42C228.954 12.5 228.154 12 227.414 11.58C226.254 10.92 225.434 10.22 225.434 9.12C225.434 7.66 226.634 6.84 228.154 6.84ZM237.758 7.96H235.498C235.158 7.96 235.138 8.02 235.138 8.44V12.18C235.138 13.34 235.278 14.4 236.598 14.4C236.798 14.4 236.978 14.36 237.138 14.3C237.318 14.24 237.578 14.02 237.638 14.02C237.798 14.02 237.878 14.24 237.838 14.36C237.478 14.78 236.758 15.28 235.738 15.28C234.018 15.28 233.658 14.32 233.658 13.12V8.54C233.658 8 233.638 7.96 233.238 7.96H232.678C232.558 7.88 232.538 7.66 232.618 7.54C233.198 7.36 233.698 7.1 233.898 6.92C234.158 6.68 234.538 6.14 234.738 5.74C234.838 5.7 235.078 5.7 235.158 5.84V6.74C235.158 7.1 235.178 7.12 235.518 7.12H237.738C237.978 7.3 237.938 7.84 237.758 7.96ZM245.331 9.88H241.631C241.111 9.88 241.091 9.92 241.091 10.42C241.091 12.44 242.271 14.16 244.411 14.16C245.071 14.16 245.631 13.96 246.251 13.18C246.451 13.12 246.591 13.24 246.611 13.42C245.951 14.78 244.511 15.28 243.471 15.28C242.171 15.28 241.151 14.72 240.571 13.96C239.971 13.18 239.731 12.24 239.731 11.36C239.731 8.9 241.351 6.84 243.751 6.84C245.471 6.84 246.591 8.02 246.591 9.22C246.591 9.5 246.551 9.66 246.511 9.74C246.451 9.86 246.171 9.88 245.331 9.88ZM241.451 9.28H242.871C244.351 9.28 244.791 9.2 244.951 9.08C245.011 9.04 245.071 8.96 245.071 8.7C245.071 8.14 244.691 7.44 243.531 7.44C242.351 7.44 241.331 8.52 241.311 9.18C241.311 9.22 241.311 9.28 241.451 9.28ZM260.521 12.76V9.86C260.521 8.5 259.921 7.8 258.661 7.8C257.901 7.8 257.281 8.14 257.001 8.5C256.761 8.8 256.701 9 256.701 9.7V12.76C256.701 14.2 256.741 14.4 257.461 14.5L257.881 14.56C258.021 14.66 257.981 15 257.841 15.06C257.241 15.02 256.661 15 255.961 15C255.241 15 254.701 15.02 254.141 15.06C254.001 15 253.961 14.66 254.101 14.56L254.461 14.5C255.201 14.38 255.221 14.2 255.221 12.76V9.86C255.221 8.52 254.621 7.8 253.381 7.8C252.561 7.8 252.001 8.16 251.701 8.52C251.501 8.76 251.401 9.02 251.401 9.66V12.76C251.401 14.2 251.441 14.38 252.161 14.5L252.521 14.56C252.661 14.66 252.621 15 252.481 15.06C251.941 15.02 251.361 15 250.661 15C249.941 15 249.341 15.02 248.721 15.06C248.581 15 248.541 14.66 248.681 14.56L249.161 14.5C249.901 14.4 249.921 14.2 249.921 12.76V9.26C249.921 8.48 249.921 8.38 249.381 8.02L249.201 7.9C249.121 7.82 249.121 7.6 249.221 7.54C249.681 7.38 250.821 6.86 251.221 6.56C251.301 6.56 251.401 6.6 251.441 6.7C251.401 7.16 251.401 7.46 251.401 7.64C251.401 7.76 251.481 7.86 251.621 7.86C252.381 7.32 253.321 6.84 254.281 6.84C255.281 6.84 255.841 7.2 256.401 8.02C256.581 8.06 256.721 7.98 256.901 7.86C257.701 7.3 258.681 6.84 259.621 6.84C261.221 6.84 262.001 7.94 262.001 9.32V12.76C262.001 14.2 262.041 14.4 262.761 14.5L263.241 14.56C263.381 14.66 263.341 15 263.201 15.06C262.541 15.02 261.961 15 261.261 15C260.541 15 260.001 15.02 259.441 15.06C259.301 15 259.261 14.66 259.401 14.56L259.761 14.5C260.501 14.38 260.521 14.2 260.521 12.76ZM268.423 6.84C269.263 6.84 270.003 7.04 270.183 7.2C270.363 7.64 270.503 8.28 270.503 8.82C270.423 8.96 270.123 9 270.023 8.88C269.683 8 269.083 7.42 268.263 7.42C267.483 7.42 266.983 7.92 266.983 8.64C266.983 9.46 267.823 9.9 268.523 10.3C269.583 10.9 270.563 11.58 270.563 13C270.563 14.52 269.163 15.28 267.683 15.28C266.743 15.28 266.043 15.08 265.543 14.68C265.383 14.3 265.263 13.32 265.303 12.66C265.403 12.54 265.663 12.52 265.763 12.64C266.103 13.74 266.743 14.7 267.883 14.7C268.603 14.7 269.223 14.28 269.223 13.42C269.223 12.5 268.423 12 267.683 11.58C266.523 10.92 265.703 10.22 265.703 9.12C265.703 7.66 266.903 6.84 268.423 6.84Z" fill="black"/>
</svg>
